<svg width="759" height="325" viewBox="0 0 759 325" fill="none" xmlns="http://www.w3.org/2000/svg">
<path d="M85.2198 299.857V311H83.8118V301.616L80.9729 302.651V301.38L84.9991 299.857H85.2198ZM92.7243 311H90.4106L90.4258 309.805H92.7243C93.5159 309.805 94.1755 309.64 94.7032 309.31C95.2309 308.975 95.6267 308.509 95.8905 307.91C96.1594 307.306 96.2939 306.601 96.2939 305.794V305.117C96.2939 304.482 96.2178 303.919 96.0656 303.427C95.9133 302.93 95.6901 302.511 95.3958 302.171C95.1015 301.826 94.7412 301.565 94.315 301.387C93.8939 301.21 93.4093 301.121 92.8613 301.121H90.3649V299.918H92.8613C93.5869 299.918 94.2491 300.04 94.8478 300.284C95.4465 300.522 95.9615 300.87 96.3928 301.326C96.8292 301.778 97.1641 302.326 97.3975 302.97C97.6309 303.61 97.7476 304.33 97.7476 305.132V305.794C97.7476 306.596 97.6309 307.319 97.3975 307.963C97.1641 308.603 96.8267 309.148 96.3852 309.6C95.9489 310.051 95.4212 310.399 94.8021 310.642C94.1882 310.881 93.4956 311 92.7243 311ZM91.1945 299.918V311H89.7256V299.918H91.1945Z" fill="#969697"/>
<path d="M314.862 299.857V311H313.454V301.616L310.615 302.651V301.38L314.641 299.857H314.862ZM319.832 299.918H321.255L324.885 308.953L328.508 299.918H329.939L325.433 311H324.322L319.832 299.918ZM319.367 299.918H320.623L320.829 306.677V311H319.367V299.918ZM329.14 299.918H330.396V311H328.934V306.677L329.14 299.918Z" fill="#969697"/>
<path d="M412.611 304.767H413.616C414.108 304.767 414.514 304.685 414.834 304.523C415.159 304.356 415.4 304.13 415.557 303.846C415.719 303.556 415.8 303.232 415.8 302.871C415.8 302.445 415.729 302.087 415.587 301.798C415.445 301.509 415.232 301.291 414.948 301.144C414.664 300.997 414.304 300.923 413.867 300.923C413.471 300.923 413.121 301.002 412.817 301.159C412.518 301.311 412.282 301.529 412.109 301.813C411.942 302.098 411.858 302.433 411.858 302.818H410.45C410.45 302.255 410.592 301.742 410.876 301.281C411.16 300.819 411.559 300.451 412.071 300.177C412.589 299.903 413.187 299.766 413.867 299.766C414.537 299.766 415.123 299.885 415.625 300.124C416.128 300.357 416.518 300.707 416.797 301.174C417.077 301.636 417.216 302.212 417.216 302.902C417.216 303.181 417.15 303.48 417.018 303.8C416.891 304.115 416.691 304.409 416.417 304.683C416.148 304.957 415.798 305.183 415.367 305.36C414.935 305.533 414.418 305.619 413.814 305.619H412.611V304.767ZM412.611 305.923V305.079H413.814C414.519 305.079 415.103 305.162 415.564 305.33C416.026 305.497 416.389 305.72 416.653 306C416.922 306.279 417.11 306.586 417.216 306.92C417.328 307.25 417.384 307.58 417.384 307.91C417.384 308.427 417.295 308.887 417.117 309.288C416.945 309.688 416.699 310.028 416.379 310.307C416.064 310.586 415.694 310.797 415.268 310.939C414.841 311.081 414.377 311.152 413.875 311.152C413.393 311.152 412.939 311.084 412.512 310.947C412.091 310.81 411.718 310.612 411.394 310.353C411.069 310.089 410.815 309.767 410.633 309.386C410.45 309.001 410.359 308.562 410.359 308.07H411.767C411.767 308.455 411.85 308.793 412.018 309.082C412.19 309.371 412.434 309.597 412.748 309.759C413.068 309.917 413.444 309.995 413.875 309.995C414.306 309.995 414.677 309.922 414.986 309.775C415.301 309.622 415.542 309.394 415.709 309.09C415.882 308.785 415.968 308.402 415.968 307.94C415.968 307.479 415.871 307.101 415.679 306.806C415.486 306.507 415.212 306.286 414.857 306.144C414.507 305.997 414.093 305.923 413.616 305.923H412.611ZM420.154 299.918H421.577L425.208 308.953L428.831 299.918H430.261L425.756 311H424.644L420.154 299.918ZM419.69 299.918H420.945L421.151 306.677V311H419.69V299.918ZM429.462 299.918H430.718V311H429.257V306.677L429.462 299.918Z" fill="#969697"/>
<path d="M516.283 299.903H516.404V301.098H516.283C515.537 301.098 514.913 301.22 514.41 301.463C513.908 301.702 513.51 302.024 513.215 302.43C512.921 302.831 512.708 303.282 512.576 303.785C512.449 304.287 512.386 304.797 512.386 305.315V306.943C512.386 307.435 512.444 307.872 512.561 308.252C512.677 308.628 512.837 308.945 513.04 309.204C513.243 309.463 513.472 309.658 513.725 309.79C513.984 309.922 514.253 309.988 514.532 309.988C514.857 309.988 515.146 309.927 515.4 309.805C515.653 309.678 515.866 309.503 516.039 309.28C516.217 309.052 516.351 308.783 516.442 308.473C516.534 308.164 516.579 307.824 516.579 307.453C516.579 307.123 516.539 306.806 516.458 306.502C516.376 306.192 516.252 305.918 516.085 305.68C515.917 305.436 515.707 305.246 515.453 305.109C515.204 304.967 514.907 304.896 514.562 304.896C514.172 304.896 513.806 304.992 513.466 305.185C513.132 305.373 512.855 305.622 512.637 305.931C512.424 306.235 512.302 306.568 512.272 306.928L511.526 306.92C511.597 306.352 511.729 305.868 511.921 305.467C512.119 305.061 512.363 304.731 512.652 304.477C512.946 304.219 513.274 304.031 513.634 303.914C513.999 303.792 514.385 303.731 514.791 303.731C515.344 303.731 515.821 303.835 516.222 304.044C516.622 304.252 516.952 304.531 517.211 304.881C517.47 305.226 517.66 305.616 517.782 306.053C517.909 306.484 517.972 306.928 517.972 307.385C517.972 307.907 517.899 308.397 517.751 308.854C517.604 309.31 517.384 309.711 517.089 310.056C516.8 310.401 516.442 310.67 516.016 310.863C515.59 311.056 515.095 311.152 514.532 311.152C513.933 311.152 513.411 311.03 512.964 310.787C512.518 310.538 512.147 310.208 511.853 309.797C511.559 309.386 511.338 308.93 511.191 308.427C511.044 307.925 510.97 307.415 510.97 306.898V306.235C510.97 305.454 511.049 304.688 511.206 303.937C511.363 303.186 511.635 302.506 512.02 301.897C512.411 301.288 512.951 300.804 513.642 300.443C514.332 300.083 515.212 299.903 516.283 299.903ZM520.476 299.918H521.899L525.53 308.953L529.153 299.918H530.584L526.078 311H524.967L520.476 299.918ZM520.012 299.918H521.268L521.473 306.677V311H520.012V299.918ZM529.785 299.918H531.04V311H529.579V306.677L529.785 299.918Z" fill="#969697"/>
<path d="M616.363 299.857V311H614.955V301.616L612.116 302.651V301.38L616.143 299.857H616.363ZM621.379 299.918L624.256 305.482L627.141 299.918H628.807L624.987 306.86V311H623.518V306.86L619.697 299.918H621.379Z" fill="#969697"/>
<path d="M713.181 309.843V311H705.928V309.988L709.559 305.946C710.005 305.449 710.35 305.028 710.594 304.683C710.842 304.333 711.015 304.021 711.111 303.747C711.213 303.468 711.263 303.183 711.263 302.894C711.263 302.529 711.187 302.199 711.035 301.905C710.888 301.605 710.67 301.367 710.381 301.189C710.091 301.012 709.741 300.923 709.33 300.923C708.838 300.923 708.427 301.019 708.097 301.212C707.772 301.4 707.529 301.664 707.367 302.004C707.204 302.344 707.123 302.734 707.123 303.176H705.715C705.715 302.552 705.852 301.981 706.126 301.463C706.4 300.946 706.806 300.535 707.344 300.23C707.882 299.921 708.544 299.766 709.33 299.766C710.03 299.766 710.629 299.89 711.126 300.139C711.624 300.383 712.004 300.728 712.268 301.174C712.537 301.616 712.671 302.133 712.671 302.727C712.671 303.052 712.616 303.381 712.504 303.716C712.397 304.046 712.248 304.376 712.055 304.706C711.867 305.035 711.646 305.36 711.393 305.68C711.144 306 710.878 306.314 710.594 306.624L707.625 309.843H713.181ZM715.564 299.918L718.441 305.482L721.325 299.918H722.992L719.171 306.86V311H717.702V306.86L713.882 299.918H715.564Z" fill="#969697"/>
<rect x="176.096" y="287" width="56.2874" height="37.5254" rx="10.3916" fill="#DEDEDE" fill-opacity="0.35"/>
<path d="M197.576 306.928L195.826 306.509L196.458 300.892H202.683V302.665H198.261L197.987 305.124C198.135 305.037 198.358 304.946 198.657 304.85C198.957 304.748 199.291 304.697 199.662 304.697C200.2 304.697 200.677 304.781 201.093 304.949C201.509 305.116 201.861 305.36 202.151 305.679C202.445 305.999 202.668 306.39 202.82 306.851C202.973 307.313 203.049 307.836 203.049 308.419C203.049 308.911 202.973 309.381 202.82 309.827C202.668 310.269 202.437 310.665 202.128 311.015C201.818 311.36 201.43 311.631 200.963 311.829C200.496 312.027 199.943 312.126 199.304 312.126C198.827 312.126 198.365 312.055 197.919 311.913C197.477 311.771 197.079 311.56 196.724 311.281C196.374 311.002 196.092 310.665 195.879 310.269C195.671 309.868 195.562 309.411 195.552 308.899H197.729C197.759 309.213 197.84 309.485 197.972 309.713C198.109 309.936 198.289 310.109 198.513 310.231C198.736 310.352 198.997 310.413 199.296 310.413C199.576 310.413 199.814 310.36 200.012 310.254C200.21 310.147 200.37 310 200.491 309.812C200.613 309.619 200.702 309.396 200.758 309.142C200.819 308.884 200.849 308.604 200.849 308.305C200.849 308.006 200.814 307.734 200.743 307.491C200.672 307.247 200.562 307.037 200.415 306.859C200.268 306.681 200.08 306.544 199.852 306.448C199.629 306.352 199.368 306.303 199.068 306.303C198.662 306.303 198.348 306.367 198.124 306.494C197.906 306.621 197.724 306.765 197.576 306.928ZM208.095 311.974H205.682L205.697 310.193H208.095C208.694 310.193 209.198 310.058 209.609 309.789C210.02 309.515 210.33 309.117 210.538 308.594C210.751 308.072 210.858 307.44 210.858 306.699V306.159C210.858 305.591 210.797 305.091 210.675 304.659C210.558 304.228 210.383 303.865 210.15 303.571C209.916 303.277 209.63 303.056 209.29 302.909C208.95 302.757 208.559 302.681 208.118 302.681H205.636V300.892H208.118C208.858 300.892 209.536 301.019 210.15 301.273C210.769 301.521 211.304 301.879 211.756 302.346C212.207 302.812 212.555 303.371 212.798 304.02C213.047 304.665 213.171 305.382 213.171 306.174V306.699C213.171 307.486 213.047 308.204 212.798 308.853C212.555 309.503 212.207 310.061 211.756 310.528C211.309 310.989 210.774 311.347 210.15 311.601C209.531 311.849 208.846 311.974 208.095 311.974ZM206.976 300.892V311.974H204.693V300.892H206.976Z" fill="#141416"/>
<path d="M73.9595 179.376C110.53 179.376 114.069 206.595 152.999 206.595C191.928 206.595 182.491 129.235 219.061 129.235C255.632 129.235 235.577 64.0529 286.304 64.0529C337.03 64.0529 313.436 129.235 359.444 129.235C405.452 129.235 398.374 53.1451 427.866 53.1451C457.358 53.1451 449.101 98.4349 484.491 98.4349C519.882 98.4349 503.366 23.7339 541.116 23.7339C578.866 23.7339 575.327 56.342 609.538 56.342C643.749 56.342 647.288 94.1372 694.476 94.1372C741.664 94.1372 712.171 136.264 757 136.264" stroke="#141416" stroke-width="3" stroke-linecap="round" stroke-linejoin="round"/>
<circle cx="648.338" cy="75.6221" r="8.09132" fill="white" stroke="#141416" stroke-width="3.14061"/>
<rect x="663" y="25" width="71" height="30" rx="5.21318" fill="#141416"/>
<path d="M672.096 35.7846V33.5429H676.284V46.2109H673.782V35.7846H672.096ZM680.043 46.3326C679.602 46.3326 679.237 46.1994 678.948 45.9329C678.67 45.6549 678.531 45.3131 678.531 44.9076C678.531 44.5022 678.67 44.1662 678.948 43.8998C679.237 43.6217 679.602 43.4827 680.043 43.4827C680.471 43.4827 680.825 43.6217 681.103 43.8998C681.381 44.1662 681.52 44.5022 681.52 44.9076C681.52 45.3131 681.381 45.6549 681.103 45.9329C680.825 46.1994 680.471 46.3326 680.043 46.3326ZM683.236 36.8793C683.294 35.7209 683.699 34.8288 684.452 34.2033C685.217 33.5661 686.219 33.2475 687.459 33.2475C688.304 33.2475 689.028 33.3981 689.631 33.6993C690.233 33.9889 690.685 34.3886 690.986 34.8983C691.299 35.3965 691.455 35.9641 691.455 36.6013C691.455 37.3312 691.264 37.9509 690.882 38.4607C690.511 38.9588 690.065 39.2948 689.544 39.4686V39.5381C690.216 39.7466 690.737 40.1173 691.108 40.6502C691.49 41.1831 691.681 41.8666 691.681 42.7007C691.681 43.3958 691.519 44.0156 691.195 44.5601C690.882 45.1046 690.413 45.5332 689.787 45.846C689.173 46.1472 688.432 46.2978 687.563 46.2978C686.254 46.2978 685.188 45.9677 684.365 45.3073C683.543 44.647 683.109 43.6739 683.062 42.3879H685.425C685.449 42.9556 685.64 43.4132 685.999 43.7607C686.37 44.0967 686.874 44.2647 687.511 44.2647C688.102 44.2647 688.553 44.1025 688.866 43.7781C689.191 43.4422 689.353 43.0135 689.353 42.4922C689.353 41.7971 689.133 41.299 688.692 40.9978C688.252 40.6966 687.569 40.546 686.642 40.546H686.138V38.5476H686.642C688.287 38.5476 689.109 37.9973 689.109 36.8967C689.109 36.3986 688.959 36.0105 688.658 35.7324C688.368 35.4544 687.945 35.3154 687.389 35.3154C686.845 35.3154 686.422 35.466 686.121 35.7672C685.831 36.0568 685.663 36.4275 685.617 36.8793H683.236ZM700.455 36.0452V39.0863H704.539V41.0151H700.455V44.2299H705.06V46.2109H698.023V34.0642H705.06V36.0452H700.455ZM715.525 34.0816V36.0452H712.293V46.2109H709.86V36.0452H706.628V34.0816H715.525ZM727.362 34.0816V46.2109H724.929V41.0499H719.733V46.2109H717.3V34.0816H719.733V39.0689H724.929V34.0816H727.362Z" fill="white"/>
<line opacity="0.05" x1="2.91197" y1="232.088" x2="742.463" y2="232.088" stroke="#005A64" stroke-width="1.82492" stroke-linecap="round"/>
<line opacity="0.05" x1="5.35924" y1="166.088" x2="744.91" y2="166.088" stroke="#005A64" stroke-width="1.82492" stroke-linecap="round"/>
<line opacity="0.05" x1="2.91197" y1="100.088" x2="742.463" y2="100.088" stroke="#005A64" stroke-width="1.82492" stroke-linecap="round"/>
<line opacity="0.05" x1="3.20982" y1="34.0875" x2="742.761" y2="34.0875" stroke="#005A64" stroke-width="1.82492" stroke-linecap="round"/>
<path d="M10.5977 256.989V258.833C10.5977 259.824 10.5091 260.66 10.3318 261.342C10.1546 262.023 9.89984 262.571 9.56755 262.986C9.23525 263.402 8.83373 263.704 8.36297 263.892C7.89776 264.075 7.37163 264.166 6.78457 264.166C6.31936 264.166 5.89014 264.108 5.49692 263.992C5.10371 263.875 4.74926 263.69 4.43358 263.435C4.12343 263.175 3.8576 262.837 3.63607 262.422C3.41454 262.006 3.24562 261.502 3.12932 260.91C3.01301 260.317 2.95486 259.625 2.95486 258.833V256.989C2.95486 255.997 3.04347 255.166 3.2207 254.496C3.40346 253.826 3.66099 253.289 3.99329 252.885C4.32558 252.475 4.72434 252.181 5.18955 252.004C5.6603 251.827 6.18644 251.738 6.76795 251.738C7.23871 251.738 7.67069 251.796 8.06391 251.913C8.46266 252.024 8.81711 252.204 9.12725 252.453C9.4374 252.696 9.70046 253.023 9.91646 253.433C10.138 253.837 10.3069 254.333 10.4232 254.92C10.5395 255.507 10.5977 256.197 10.5977 256.989ZM9.05249 259.082V256.731C9.05249 256.188 9.01926 255.712 8.9528 255.302C8.89188 254.887 8.8005 254.532 8.67865 254.239C8.55681 253.945 8.40174 253.707 8.21344 253.524C8.03068 253.342 7.81746 253.209 7.57377 253.126C7.33563 253.037 7.06702 252.993 6.76795 252.993C6.40243 252.993 6.07844 253.062 5.79599 253.2C5.51354 253.333 5.27539 253.547 5.08155 253.84C4.89325 254.134 4.74926 254.518 4.64957 254.995C4.54988 255.471 4.50004 256.05 4.50004 256.731V259.082C4.50004 259.625 4.5305 260.104 4.59142 260.519C4.65788 260.935 4.7548 261.295 4.88218 261.599C5.00956 261.898 5.16463 262.145 5.34739 262.339C5.53015 262.532 5.74061 262.676 5.97875 262.771C6.22244 262.859 6.49104 262.903 6.78457 262.903C7.16117 262.903 7.4907 262.831 7.77315 262.687C8.0556 262.543 8.29098 262.319 8.47928 262.015C8.67312 261.704 8.81711 261.308 8.91126 260.827C9.00541 260.339 9.05249 259.758 9.05249 259.082Z" fill="#141416"/>
<path d="M11.5977 194.989V196.833C11.5977 197.824 11.5091 198.66 11.3318 199.342C11.1546 200.023 10.8998 200.571 10.5675 200.986C10.2352 201.402 9.83373 201.704 9.36297 201.892C8.89776 202.075 8.37163 202.166 7.78457 202.166C7.31936 202.166 6.89014 202.108 6.49692 201.992C6.10371 201.875 5.74926 201.69 5.43358 201.435C5.12343 201.175 4.8576 200.837 4.63607 200.422C4.41454 200.006 4.24562 199.502 4.12932 198.91C4.01301 198.317 3.95486 197.625 3.95486 196.833V194.989C3.95486 193.997 4.04347 193.166 4.2207 192.496C4.40346 191.826 4.66099 191.289 4.99329 190.885C5.32558 190.475 5.72434 190.181 6.18955 190.004C6.6603 189.827 7.18644 189.738 7.76795 189.738C8.23871 189.738 8.67069 189.796 9.06391 189.913C9.46266 190.024 9.81711 190.204 10.1273 190.453C10.4374 190.696 10.7005 191.023 10.9165 191.433C11.138 191.837 11.3069 192.333 11.4232 192.92C11.5395 193.507 11.5977 194.197 11.5977 194.989ZM10.0525 197.082V194.731C10.0525 194.188 10.0193 193.712 9.9528 193.302C9.89188 192.887 9.8005 192.532 9.67865 192.239C9.55681 191.945 9.40174 191.707 9.21344 191.524C9.03068 191.342 8.81746 191.209 8.57377 191.126C8.33563 191.037 8.06702 190.993 7.76795 190.993C7.40243 190.993 7.07844 191.062 6.79599 191.2C6.51354 191.333 6.27539 191.547 6.08155 191.84C5.89325 192.134 5.74926 192.518 5.64957 192.995C5.54988 193.471 5.50004 194.05 5.50004 194.731V197.082C5.50004 197.625 5.5305 198.104 5.59142 198.519C5.65788 198.935 5.7548 199.295 5.88218 199.599C6.00956 199.898 6.16463 200.145 6.34739 200.339C6.53015 200.532 6.74061 200.676 6.97875 200.771C7.22244 200.859 7.49104 200.903 7.78457 200.903C8.16117 200.903 8.4907 200.831 8.77315 200.687C9.0556 200.543 9.29098 200.319 9.47928 200.015C9.67312 199.704 9.81711 199.308 9.91126 198.827C10.0054 198.339 10.0525 197.758 10.0525 197.082ZM13.7659 201.186C13.7659 200.926 13.8462 200.707 14.0068 200.53C14.173 200.347 14.4111 200.255 14.7212 200.255C15.0314 200.255 15.2668 200.347 15.4274 200.53C15.5935 200.707 15.6766 200.926 15.6766 201.186C15.6766 201.441 15.5935 201.657 15.4274 201.834C15.2668 202.011 15.0314 202.1 14.7212 202.1C14.4111 202.1 14.173 202.011 14.0068 201.834C13.8462 201.657 13.7659 201.441 13.7659 201.186ZM20.0047 196.243L18.7752 195.927L19.3817 189.904H25.5873V191.325H20.6859L20.3204 194.615C20.542 194.487 20.8216 194.368 21.1595 194.258C21.5028 194.147 21.8961 194.091 22.3391 194.091C22.8985 194.091 23.3997 194.188 23.8428 194.382C24.2858 194.57 24.6624 194.842 24.9726 195.196C25.2882 195.551 25.5292 195.977 25.6953 196.476C25.8615 196.974 25.9445 197.531 25.9445 198.145C25.9445 198.727 25.8642 199.261 25.7036 199.749C25.5485 200.236 25.3132 200.663 24.9975 201.028C24.6818 201.388 24.283 201.668 23.8012 201.867C23.3249 202.066 22.7628 202.166 22.1148 202.166C21.6275 202.166 21.165 202.1 20.7275 201.967C20.2955 201.828 19.9078 201.621 19.5645 201.344C19.2266 201.061 18.9497 200.712 18.7337 200.297C18.5233 199.876 18.3903 199.383 18.335 198.818H19.7971C19.8635 199.272 19.9964 199.655 20.1958 199.965C20.3952 200.275 20.6555 200.51 20.9767 200.671C21.3035 200.826 21.6828 200.903 22.1148 200.903C22.4803 200.903 22.8043 200.84 23.0868 200.712C23.3692 200.585 23.6074 200.402 23.8012 200.164C23.9951 199.926 24.1418 199.638 24.2415 199.3C24.3467 198.962 24.3994 198.583 24.3994 198.162C24.3994 197.78 24.3467 197.425 24.2415 197.099C24.1363 196.772 23.9784 196.487 23.768 196.243C23.5631 195.999 23.3111 195.811 23.012 195.678C22.713 195.54 22.3696 195.47 21.9819 195.47C21.4668 195.47 21.0764 195.54 20.8106 195.678C20.5503 195.817 20.2817 196.005 20.0047 196.243Z" fill="#141416"/>
<path d="M8.0556 127.838V140H6.51873V129.757L3.42008 130.887V129.499L7.81469 127.838H8.0556ZM12.7659 139.186C12.7659 138.926 12.8462 138.707 13.0068 138.53C13.173 138.347 13.4111 138.255 13.7212 138.255C14.0314 138.255 14.2668 138.347 14.4274 138.53C14.5935 138.707 14.6766 138.926 14.6766 139.186C14.6766 139.441 14.5935 139.657 14.4274 139.834C14.2668 140.011 14.0314 140.1 13.7212 140.1C13.4111 140.1 13.173 140.011 13.0068 139.834C12.8462 139.657 12.7659 139.441 12.7659 139.186ZM24.6538 132.989V134.833C24.6538 135.824 24.5652 136.66 24.3879 137.342C24.2107 138.023 23.9559 138.571 23.6237 138.986C23.2914 139.402 22.8898 139.704 22.4191 139.892C21.9539 140.075 21.4277 140.166 20.8407 140.166C20.3755 140.166 19.9462 140.108 19.553 139.992C19.1598 139.875 18.8054 139.69 18.4897 139.435C18.1795 139.175 17.9137 138.837 17.6922 138.422C17.4706 138.006 17.3017 137.502 17.1854 136.91C17.0691 136.317 17.011 135.625 17.011 134.833V132.989C17.011 131.997 17.0996 131.166 17.2768 130.496C17.4596 129.826 17.7171 129.289 18.0494 128.885C18.3817 128.475 18.7804 128.181 19.2457 128.004C19.7164 127.827 20.2425 127.738 20.8241 127.738C21.2948 127.738 21.7268 127.796 22.12 127.913C22.5188 128.024 22.8732 128.204 23.1834 128.453C23.4935 128.696 23.7566 129.023 23.9726 129.433C24.1941 129.837 24.363 130.333 24.4793 130.92C24.5956 131.507 24.6538 132.197 24.6538 132.989ZM23.1086 135.082V132.731C23.1086 132.188 23.0754 131.712 23.0089 131.302C22.948 130.887 22.8566 130.532 22.7348 130.239C22.6129 129.945 22.4578 129.707 22.2695 129.524C22.0868 129.342 21.8736 129.209 21.6299 129.126C21.3917 129.037 21.1231 128.993 20.8241 128.993C20.4585 128.993 20.1345 129.062 19.8521 129.2C19.5696 129.333 19.3315 129.547 19.1377 129.84C18.9494 130.134 18.8054 130.518 18.7057 130.995C18.606 131.471 18.5561 132.05 18.5561 132.731V135.082C18.5561 135.625 18.5866 136.104 18.6475 136.519C18.714 136.935 18.8109 137.295 18.9383 137.599C19.0657 137.898 19.2207 138.145 19.4035 138.339C19.5863 138.532 19.7967 138.676 20.0349 138.771C20.2785 138.859 20.5471 138.903 20.8407 138.903C21.2173 138.903 21.5468 138.831 21.8293 138.687C22.1117 138.543 22.3471 138.319 22.5354 138.015C22.7292 137.704 22.8732 137.308 22.9674 136.827C23.0615 136.339 23.1086 135.758 23.1086 135.082Z" fill="#141416"/>
<path d="M6.0556 65.838V78H4.51873V67.757L1.42008 68.8868V67.4995L5.81469 65.838H6.0556ZM10.7659 77.1859C10.7659 76.9256 10.8462 76.7068 11.0068 76.5296C11.173 76.3468 11.4111 76.2554 11.7212 76.2554C12.0314 76.2554 12.2668 76.3468 12.4274 76.5296C12.5935 76.7068 12.6766 76.9256 12.6766 77.1859C12.6766 77.4406 12.5935 77.6566 12.4274 77.8339C12.2668 78.0111 12.0314 78.0997 11.7212 78.0997C11.4111 78.0997 11.173 78.0111 11.0068 77.8339C10.8462 77.6566 10.7659 77.4406 10.7659 77.1859ZM17.0047 72.243L15.7752 71.9273L16.3817 65.9044H22.5873V67.325H17.6859L17.3204 70.6147C17.542 70.4873 17.8216 70.3683 18.1595 70.2575C18.5028 70.1467 18.8961 70.0914 19.3391 70.0914C19.8985 70.0914 20.3997 70.1883 20.8428 70.3821C21.2858 70.5704 21.6624 70.8418 21.9726 71.1962C22.2882 71.5507 22.5292 71.9771 22.6953 72.4756C22.8615 72.974 22.9445 73.5306 22.9445 74.1454C22.9445 74.7269 22.8642 75.2613 22.7036 75.7487C22.5485 76.2361 22.3132 76.6625 21.9975 77.028C21.6818 77.388 21.283 77.6677 20.8012 77.8671C20.3249 78.0665 19.7628 78.1661 19.1148 78.1661C18.6275 78.1661 18.165 78.0997 17.7275 77.9668C17.2955 77.8283 16.9078 77.6206 16.5645 77.3437C16.2266 77.0613 15.9497 76.7124 15.7337 76.297C15.5233 75.8761 15.3903 75.3832 15.335 74.8183H16.7971C16.8635 75.2724 16.9964 75.6545 17.1958 75.9647C17.3952 76.2748 17.6555 76.5102 17.9767 76.6708C18.3035 76.8259 18.6828 76.9034 19.1148 76.9034C19.4803 76.9034 19.8043 76.8397 20.0868 76.7124C20.3692 76.585 20.6074 76.4022 20.8012 76.1641C20.9951 75.9259 21.1418 75.6379 21.2415 75.3001C21.3467 74.9623 21.3994 74.5829 21.3994 74.162C21.3994 73.7798 21.3467 73.4254 21.2415 73.0986C21.1363 72.7719 20.9784 72.4867 20.768 72.243C20.5631 71.9993 20.3111 71.811 20.012 71.6781C19.713 71.5396 19.3696 71.4704 18.9819 71.4704C18.4668 71.4704 18.0764 71.5396 17.8106 71.6781C17.5503 71.8165 17.2817 72.0048 17.0047 72.243Z" fill="#141416"/>
<path d="M8.92996 14.7373V16H1.01301V14.8951L4.97564 10.4839C5.46301 9.94114 5.83961 9.48147 6.10544 9.10486C6.37682 8.72272 6.56512 8.38212 6.67035 8.08306C6.78111 7.77845 6.8365 7.46831 6.8365 7.15263C6.8365 6.75387 6.75342 6.39389 6.58727 6.07267C6.42666 5.74591 6.18852 5.48561 5.87284 5.29177C5.55716 5.09793 5.17502 5.00101 4.72642 5.00101C4.18921 5.00101 3.74061 5.10624 3.38062 5.31669C3.02617 5.52161 2.76033 5.8096 2.58311 6.18066C2.40589 6.55173 2.31727 6.97817 2.31727 7.46H0.780407C0.780407 6.7788 0.92994 6.15574 1.22901 5.59084C1.52807 5.02594 1.97113 4.57734 2.55819 4.24504C3.14524 3.90721 3.86799 3.73829 4.72642 3.73829C5.4907 3.73829 6.14421 3.87398 6.68696 4.14535C7.22971 4.41119 7.64508 4.78779 7.93307 5.27516C8.2266 5.75699 8.37336 6.32189 8.37336 6.96987C8.37336 7.32431 8.31244 7.6843 8.1906 8.04983C8.0743 8.40981 7.91092 8.7698 7.70046 9.12979C7.49555 9.48977 7.25463 9.84422 6.97772 10.1931C6.70635 10.542 6.41559 10.8854 6.10544 11.2232L2.86556 14.7373H8.92996ZM10.7659 15.1859C10.7659 14.9256 10.8462 14.7068 11.0068 14.5296C11.173 14.3468 11.4111 14.2554 11.7212 14.2554C12.0314 14.2554 12.2668 14.3468 12.4274 14.5296C12.5935 14.7068 12.6766 14.9256 12.6766 15.1859C12.6766 15.4406 12.5935 15.6566 12.4274 15.8339C12.2668 16.0111 12.0314 16.0997 11.7212 16.0997C11.4111 16.0997 11.173 16.0111 11.0068 15.8339C10.8462 15.6566 10.7659 15.4406 10.7659 15.1859ZM22.6538 8.98856V10.8328C22.6538 11.8242 22.5652 12.6604 22.3879 13.3416C22.2107 14.0228 21.9559 14.5711 21.6237 14.9865C21.2914 15.4019 20.8898 15.7037 20.4191 15.892C19.9539 16.0748 19.4277 16.1661 18.8407 16.1661C18.3755 16.1661 17.9462 16.108 17.553 15.9917C17.1598 15.8754 16.8054 15.6899 16.4897 15.4351C16.1795 15.1748 15.9137 14.837 15.6922 14.4216C15.4706 14.0062 15.3017 13.5022 15.1854 12.9097C15.0691 12.3171 15.011 11.6248 15.011 10.8328V8.98856C15.011 7.99721 15.0996 7.16647 15.2768 6.49634C15.4596 5.82621 15.7171 5.289 16.0494 4.88471C16.3817 4.47488 16.7804 4.18135 17.2457 4.00413C17.7164 3.8269 18.2425 3.73829 18.8241 3.73829C19.2948 3.73829 19.7268 3.79644 20.12 3.91274C20.5188 4.02351 20.8732 4.2035 21.1834 4.45273C21.4935 4.69641 21.7566 5.02317 21.9726 5.433C22.1941 5.83729 22.363 6.33297 22.4793 6.92002C22.5956 7.50708 22.6538 8.19659 22.6538 8.98856ZM21.1086 11.082V8.73103C21.1086 8.18828 21.0754 7.71199 21.0089 7.30216C20.948 6.88679 20.8566 6.53234 20.7348 6.23881C20.6129 5.94529 20.4578 5.70714 20.2695 5.52438C20.0868 5.34162 19.8736 5.2087 19.6299 5.12562C19.3917 5.03701 19.1231 4.99271 18.8241 4.99271C18.4585 4.99271 18.1345 5.06193 17.8521 5.20039C17.5696 5.33331 17.3315 5.54653 17.1377 5.84006C16.9494 6.13359 16.8054 6.5185 16.7057 6.99479C16.606 7.47108 16.5561 8.04983 16.5561 8.73103V11.082C16.5561 11.6248 16.5866 12.1038 16.6475 12.5192C16.714 12.9346 16.8109 13.2946 16.9383 13.5992C17.0657 13.8982 17.2207 14.1447 17.4035 14.3385C17.5863 14.5324 17.7967 14.6764 18.0349 14.7705C18.2785 14.8591 18.5471 14.9034 18.8407 14.9034C19.2173 14.9034 19.5468 14.8314 19.8293 14.6874C20.1117 14.5434 20.3471 14.3191 20.5354 14.0145C20.7292 13.7044 20.8732 13.3084 20.9674 12.8266C21.0615 12.3392 21.1086 11.7577 21.1086 11.082Z" fill="#141416"/>
</svg>
