<svg width="16" height="16" viewBox="0 0 16 16" fill="none" xmlns="http://www.w3.org/2000/svg">
<circle cx="7.99685" cy="8.18289" r="7.81033" fill="white"/>
<path fill-rule="evenodd" clip-rule="evenodd" d="M7.99606 1.51392C4.31293 1.51392 1.32703 4.49982 1.32703 8.18294C1.32703 11.8661 4.31293 14.852 7.99606 14.852C11.6792 14.852 14.6651 11.8661 14.6651 8.18294C14.6651 4.49982 11.6792 1.51392 7.99606 1.51392ZM10.8868 7.05527C10.94 6.99443 10.9805 6.92355 11.006 6.84682C11.0314 6.77008 11.0412 6.68903 11.0349 6.60844C11.0285 6.52785 11.0061 6.44934 10.969 6.37753C10.9318 6.30573 10.8807 6.24208 10.8186 6.19032C10.7565 6.13857 10.6847 6.09976 10.6073 6.07618C10.53 6.05259 10.4488 6.04471 10.3683 6.053C10.2879 6.06128 10.21 6.08556 10.1391 6.12442C10.0682 6.16327 10.0058 6.21591 9.95554 6.27924L7.34855 9.40701L5.99959 8.05745C5.88525 7.94701 5.7321 7.8859 5.57314 7.88728C5.41417 7.88866 5.26211 7.95242 5.1497 8.06483C5.03729 8.17724 4.97353 8.3293 4.97215 8.48826C4.97077 8.64723 5.03188 8.80037 5.14232 8.91472L6.96114 10.7335C7.02071 10.7931 7.09203 10.8396 7.17056 10.87C7.24909 10.9004 7.33309 10.9142 7.41723 10.9104C7.50136 10.9065 7.58377 10.8852 7.65922 10.8478C7.73466 10.8104 7.80147 10.7576 7.8554 10.6929L10.8868 7.05527Z" fill="#007AFF"/>
</svg>
