<svg width="13" height="6" viewBox="0 0 13 6" fill="none" xmlns="http://www.w3.org/2000/svg">
<path d="M12.7794 1.01726C12.7799 1.14372 12.752 1.26867 12.6978 1.38292C12.6436 1.49718 12.5644 1.59784 12.4662 1.67751L7.38745 5.76594C7.23599 5.89043 7.046 5.9585 6.84994 5.9585C6.65388 5.9585 6.4639 5.89043 6.31244 5.76594L1.23364 1.53361C1.06078 1.38993 0.952075 1.18347 0.931438 0.95964C0.910801 0.735812 0.979925 0.512954 1.1236 0.340091C1.26728 0.167229 1.47374 0.0585227 1.69757 0.0378861C1.9214 0.0172495 2.14426 0.0863728 2.31712 0.230051L6.85417 4.01375L11.3912 0.357021C11.5155 0.253512 11.6668 0.187761 11.8272 0.167548C11.9877 0.147335 12.1505 0.173505 12.2966 0.242962C12.4426 0.31242 12.5657 0.422257 12.6513 0.559478C12.7369 0.696699 12.7813 0.85556 12.7794 1.01726Z" fill="white"/>
</svg>
