<svg width="16" height="16" viewBox="0 0 16 16" fill="none" xmlns="http://www.w3.org/2000/svg">
<path d="M0.638184 2.61695C0.638184 2.11183 0.834383 1.6274 1.18362 1.27023C1.53285 0.913059 2.00652 0.712402 2.50041 0.712402H11.6422C12.1361 0.712402 12.6098 0.913059 12.959 1.27023C13.3083 1.6274 13.5045 2.11183 13.5045 2.61695V3.48819C14.1472 3.53212 14.7497 3.82426 15.1898 4.30545C15.6298 4.78664 15.8746 5.4209 15.8746 6.07976V13.3517C15.8746 14.0405 15.607 14.7011 15.1308 15.1881C14.6546 15.6752 14.0087 15.9488 13.3352 15.9488H3.18029C2.5068 15.9488 1.86089 15.6752 1.38467 15.1881C0.908436 14.7011 0.640893 14.0405 0.640893 13.3517V6.07976H0.638184V2.79009H0.645633C0.640615 2.73252 0.63813 2.67475 0.638184 2.61695ZM12.4887 2.61695C12.4887 2.13908 12.1095 1.75125 11.6422 1.75125H2.50041C2.27591 1.75125 2.06061 1.84245 1.90187 2.0048C1.74312 2.16716 1.65394 2.38735 1.65394 2.61695C1.65394 2.84655 1.74312 3.06674 1.90187 3.22909C2.06061 3.39145 2.27591 3.48265 2.50041 3.48265H12.4887V2.61695ZM11.3036 9.71572C11.169 9.71572 11.0398 9.77044 10.9445 9.86785C10.8493 9.96526 10.7958 10.0974 10.7958 10.2351C10.7958 10.3729 10.8493 10.505 10.9445 10.6024C11.0398 10.6998 11.169 10.7546 11.3036 10.7546H12.9966C13.1313 10.7546 13.2605 10.6998 13.3557 10.6024C13.451 10.505 13.5045 10.3729 13.5045 10.2351C13.5045 10.0974 13.451 9.96526 13.3557 9.86785C13.2605 9.77044 13.1313 9.71572 12.9966 9.71572H11.3036Z" fill="white"/>
</svg>
