<svg width="120" height="400" viewBox="0 0 120 400" fill="none" xmlns="http://www.w3.org/2000/svg">
<g opacity="0.5">
<rect y="207.423" width="2.83607" height="2.84073" fill="black"/>
<rect x="18.9062" y="207.423" width="2.83607" height="2.84073" fill="black"/>
<rect x="37.8145" y="207.423" width="2.83607" height="2.84073" fill="black"/>
<rect x="56.7217" y="207.423" width="2.83607" height="2.84073" fill="black"/>
<rect x="75.6279" y="207.423" width="2.83607" height="2.84073" fill="black"/>
<rect x="94.5361" y="207.423" width="2.83607" height="2.84073" fill="black"/>
<rect x="113.443" y="207.423" width="2.83607" height="2.84073" fill="black"/>
<rect y="226.361" width="2.83607" height="2.84073" fill="black"/>
<rect x="18.9062" y="226.361" width="2.83607" height="2.84073" fill="black"/>
<rect x="37.8145" y="226.361" width="2.83607" height="2.84073" fill="black"/>
<rect x="56.7217" y="226.361" width="2.83607" height="2.84073" fill="black"/>
<rect x="75.6279" y="226.361" width="2.83607" height="2.84073" fill="black"/>
<rect x="94.5361" y="226.361" width="2.83607" height="2.84073" fill="black"/>
<rect x="113.443" y="226.361" width="2.83607" height="2.84073" fill="black"/>
<rect y="245.3" width="2.83607" height="2.84073" fill="black"/>
<rect x="18.9062" y="245.3" width="2.83607" height="2.84073" fill="black"/>
<rect x="37.8145" y="245.3" width="2.83607" height="2.84073" fill="black"/>
<rect x="56.7217" y="245.3" width="2.83607" height="2.84073" fill="black"/>
<rect x="75.6279" y="245.3" width="2.83607" height="2.84073" fill="black"/>
<rect x="94.5361" y="245.3" width="2.83607" height="2.84073" fill="black"/>
<rect x="113.443" y="245.3" width="2.83607" height="2.84073" fill="black"/>
<rect y="264.238" width="2.83607" height="2.84073" fill="black"/>
<rect x="18.9062" y="264.238" width="2.83607" height="2.84073" fill="black"/>
<rect x="37.8145" y="264.238" width="2.83607" height="2.84073" fill="black"/>
<rect x="56.7217" y="264.238" width="2.83607" height="2.84073" fill="black"/>
<rect x="75.6279" y="264.238" width="2.83607" height="2.84073" fill="black"/>
<rect x="94.5361" y="264.238" width="2.83607" height="2.84073" fill="black"/>
<rect x="113.443" y="264.238" width="2.83607" height="2.84073" fill="black"/>
<rect y="283.176" width="2.83607" height="2.84073" fill="black"/>
<rect x="18.9062" y="283.176" width="2.83607" height="2.84073" fill="black"/>
<rect x="37.8145" y="283.176" width="2.83607" height="2.84073" fill="black"/>
<rect x="56.7217" y="283.176" width="2.83607" height="2.84073" fill="black"/>
<rect x="75.6279" y="283.176" width="2.83607" height="2.84073" fill="black"/>
<rect x="94.5361" y="283.176" width="2.83607" height="2.84073" fill="black"/>
<rect x="113.443" y="283.176" width="2.83607" height="2.84073" fill="black"/>
<rect y="302.115" width="2.83607" height="2.84073" fill="black"/>
<rect x="18.9062" y="302.115" width="2.83607" height="2.84073" fill="black"/>
<rect x="37.8145" y="302.115" width="2.83607" height="2.84073" fill="black"/>
<rect x="56.7217" y="302.115" width="2.83607" height="2.84073" fill="black"/>
<rect x="75.6279" y="302.115" width="2.83607" height="2.84073" fill="black"/>
<rect x="94.5361" y="302.115" width="2.83607" height="2.84073" fill="black"/>
<rect x="113.443" y="302.115" width="2.83607" height="2.84073" fill="black"/>
<rect y="321.052" width="2.83607" height="2.84073" fill="black"/>
<rect x="18.9062" y="321.052" width="2.83607" height="2.84073" fill="black"/>
<rect x="37.8145" y="321.052" width="2.83607" height="2.84073" fill="black"/>
<rect x="56.7217" y="321.052" width="2.83607" height="2.84073" fill="black"/>
<rect x="75.6279" y="321.052" width="2.83607" height="2.84073" fill="black"/>
<rect x="94.5361" y="321.052" width="2.83607" height="2.84073" fill="black"/>
<rect x="113.443" y="321.052" width="2.83607" height="2.84073" fill="black"/>
<rect y="339.99" width="2.83607" height="2.84073" fill="black"/>
<rect x="18.9062" y="339.991" width="2.83607" height="2.84073" fill="black"/>
<rect x="37.8145" y="339.991" width="2.83607" height="2.84073" fill="black"/>
<rect x="56.7217" y="339.991" width="2.83607" height="2.84073" fill="black"/>
<rect x="75.6279" y="339.991" width="2.83607" height="2.84073" fill="black"/>
<rect x="94.5361" y="339.991" width="2.83607" height="2.84073" fill="black"/>
<rect x="113.443" y="339.991" width="2.83607" height="2.84073" fill="black"/>
<rect y="358.929" width="2.83607" height="2.84073" fill="black"/>
<rect x="18.9062" y="358.929" width="2.83607" height="2.84073" fill="black"/>
<rect x="37.8145" y="358.929" width="2.83607" height="2.84073" fill="black"/>
<rect x="56.7217" y="358.929" width="2.83607" height="2.84073" fill="black"/>
<rect x="75.6279" y="358.929" width="2.83607" height="2.84073" fill="black"/>
<rect x="94.5361" y="358.929" width="2.83607" height="2.84073" fill="black"/>
<rect x="113.443" y="358.929" width="2.83607" height="2.84073" fill="black"/>
<rect y="377.866" width="2.83607" height="2.84073" fill="black"/>
<rect x="18.9062" y="377.866" width="2.83607" height="2.84073" fill="black"/>
<rect x="37.8145" y="377.866" width="2.83607" height="2.84073" fill="black"/>
<rect x="56.7217" y="377.866" width="2.83607" height="2.84073" fill="black"/>
<rect x="75.6279" y="377.866" width="2.83607" height="2.84073" fill="black"/>
<rect x="94.5361" y="377.866" width="2.83607" height="2.84073" fill="black"/>
<rect x="113.443" y="377.866" width="2.83607" height="2.84073" fill="black"/>
<rect y="396.805" width="2.83607" height="2.84073" fill="black"/>
<rect x="18.9062" y="396.806" width="2.83607" height="2.84073" fill="black"/>
<rect x="37.8145" y="396.806" width="2.83607" height="2.84073" fill="black"/>
<rect x="56.7217" y="396.806" width="2.83607" height="2.84073" fill="black"/>
<rect x="75.6279" y="396.806" width="2.83607" height="2.84073" fill="black"/>
<rect x="94.5361" y="396.806" width="2.83607" height="2.84073" fill="black"/>
<rect x="113.443" y="396.806" width="2.83607" height="2.84073" fill="black"/>
</g>
<g opacity="0.5">
<rect width="2.83607" height="2.84073" fill="black"/>
<rect x="18.9062" width="2.83607" height="2.84073" fill="black"/>
<rect x="37.8145" width="2.83607" height="2.84073" fill="black"/>
<rect x="56.7217" width="2.83607" height="2.84073" fill="black"/>
<rect x="75.6279" width="2.83607" height="2.84073" fill="black"/>
<rect x="94.5361" width="2.83607" height="2.84073" fill="black"/>
<rect x="113.443" width="2.83607" height="2.84073" fill="black"/>
<rect y="18.9377" width="2.83607" height="2.84073" fill="black"/>
<rect x="18.9062" y="18.9377" width="2.83607" height="2.84073" fill="black"/>
<rect x="37.8145" y="18.9377" width="2.83607" height="2.84073" fill="black"/>
<rect x="56.7217" y="18.9377" width="2.83607" height="2.84073" fill="black"/>
<rect x="75.6279" y="18.9377" width="2.83607" height="2.84073" fill="black"/>
<rect x="94.5361" y="18.9377" width="2.83607" height="2.84073" fill="black"/>
<rect x="113.443" y="18.9377" width="2.83607" height="2.84073" fill="black"/>
<rect y="37.8765" width="2.83607" height="2.84073" fill="black"/>
<rect x="18.9062" y="37.8765" width="2.83607" height="2.84073" fill="black"/>
<rect x="37.8145" y="37.8765" width="2.83607" height="2.84073" fill="black"/>
<rect x="56.7217" y="37.8765" width="2.83607" height="2.84073" fill="black"/>
<rect x="75.6279" y="37.8765" width="2.83607" height="2.84073" fill="black"/>
<rect x="94.5361" y="37.8765" width="2.83607" height="2.84073" fill="black"/>
<rect x="113.443" y="37.8765" width="2.83607" height="2.84073" fill="black"/>
<rect y="56.8152" width="2.83607" height="2.84073" fill="black"/>
<rect x="18.9062" y="56.8152" width="2.83607" height="2.84073" fill="black"/>
<rect x="37.8145" y="56.8152" width="2.83607" height="2.84073" fill="black"/>
<rect x="56.7217" y="56.8152" width="2.83607" height="2.84073" fill="black"/>
<rect x="75.6279" y="56.8152" width="2.83607" height="2.84073" fill="black"/>
<rect x="94.5361" y="56.8152" width="2.83607" height="2.84073" fill="black"/>
<rect x="113.443" y="56.8152" width="2.83607" height="2.84073" fill="black"/>
<rect y="75.7527" width="2.83607" height="2.84073" fill="black"/>
<rect x="18.9062" y="75.7527" width="2.83607" height="2.84073" fill="black"/>
<rect x="37.8145" y="75.7527" width="2.83607" height="2.84073" fill="black"/>
<rect x="56.7217" y="75.7527" width="2.83607" height="2.84073" fill="black"/>
<rect x="75.6279" y="75.7527" width="2.83607" height="2.84073" fill="black"/>
<rect x="94.5361" y="75.7527" width="2.83607" height="2.84073" fill="black"/>
<rect x="113.443" y="75.7527" width="2.83607" height="2.84073" fill="black"/>
<rect y="94.6914" width="2.83607" height="2.84073" fill="black"/>
<rect x="18.9062" y="94.6914" width="2.83607" height="2.84073" fill="black"/>
<rect x="37.8145" y="94.6914" width="2.83607" height="2.84073" fill="black"/>
<rect x="56.7217" y="94.6914" width="2.83607" height="2.84073" fill="black"/>
<rect x="75.6279" y="94.6914" width="2.83607" height="2.84073" fill="black"/>
<rect x="94.5361" y="94.6914" width="2.83607" height="2.84073" fill="black"/>
<rect x="113.443" y="94.6914" width="2.83607" height="2.84073" fill="black"/>
<rect y="113.629" width="2.83607" height="2.84073" fill="black"/>
<rect x="18.9062" y="113.629" width="2.83607" height="2.84073" fill="black"/>
<rect x="37.8145" y="113.629" width="2.83607" height="2.84073" fill="black"/>
<rect x="56.7217" y="113.629" width="2.83607" height="2.84073" fill="black"/>
<rect x="75.6279" y="113.629" width="2.83607" height="2.84073" fill="black"/>
<rect x="94.5361" y="113.629" width="2.83607" height="2.84073" fill="black"/>
<rect x="113.443" y="113.629" width="2.83607" height="2.84073" fill="black"/>
<rect y="132.567" width="2.83607" height="2.84073" fill="black"/>
<rect x="18.9062" y="132.568" width="2.83607" height="2.84073" fill="black"/>
<rect x="37.8145" y="132.568" width="2.83607" height="2.84073" fill="black"/>
<rect x="56.7217" y="132.568" width="2.83607" height="2.84073" fill="black"/>
<rect x="75.6279" y="132.568" width="2.83607" height="2.84073" fill="black"/>
<rect x="94.5361" y="132.568" width="2.83607" height="2.84073" fill="black"/>
<rect x="113.443" y="132.568" width="2.83607" height="2.84073" fill="black"/>
<rect y="151.506" width="2.83607" height="2.84073" fill="black"/>
<rect x="18.9062" y="151.506" width="2.83607" height="2.84073" fill="black"/>
<rect x="37.8145" y="151.506" width="2.83607" height="2.84073" fill="black"/>
<rect x="56.7217" y="151.506" width="2.83607" height="2.84073" fill="black"/>
<rect x="75.6279" y="151.506" width="2.83607" height="2.84073" fill="black"/>
<rect x="94.5361" y="151.506" width="2.83607" height="2.84073" fill="black"/>
<rect x="113.443" y="151.506" width="2.83607" height="2.84073" fill="black"/>
<rect y="170.443" width="2.83607" height="2.84073" fill="black"/>
<rect x="18.9062" y="170.443" width="2.83607" height="2.84073" fill="black"/>
<rect x="37.8145" y="170.443" width="2.83607" height="2.84073" fill="black"/>
<rect x="56.7217" y="170.443" width="2.83607" height="2.84073" fill="black"/>
<rect x="75.6279" y="170.443" width="2.83607" height="2.84073" fill="black"/>
<rect x="94.5361" y="170.443" width="2.83607" height="2.84073" fill="black"/>
<rect x="113.443" y="170.443" width="2.83607" height="2.84073" fill="black"/>
<rect y="189.382" width="2.83607" height="2.84073" fill="black"/>
<rect x="18.9062" y="189.383" width="2.83607" height="2.84073" fill="black"/>
<rect x="37.8145" y="189.383" width="2.83607" height="2.84073" fill="black"/>
<rect x="56.7217" y="189.383" width="2.83607" height="2.84073" fill="black"/>
<rect x="75.6279" y="189.383" width="2.83607" height="2.84073" fill="black"/>
<rect x="94.5361" y="189.383" width="2.83607" height="2.84073" fill="black"/>
<rect x="113.443" y="189.383" width="2.83607" height="2.84073" fill="black"/>
</g>
</svg>
