<svg width="28" height="29" viewBox="0 0 28 29" fill="none" xmlns="http://www.w3.org/2000/svg">
<path d="M4.95006 23.4504C5.48035 23.9815 6.11034 24.4025 6.80384 24.6893C7.49734 24.9761 8.24068 25.1231 8.99115 25.1217C9.74179 25.123 10.4853 24.9761 11.179 24.6893C11.8727 24.4025 12.5029 23.9815 13.0334 23.4504L16.2663 20.2164L14.6498 18.6L11.4169 21.834C10.7727 22.4753 9.90073 22.8354 8.99172 22.8354C8.08271 22.8354 7.21071 22.4753 6.5665 21.834C5.92461 21.1901 5.56418 20.318 5.56418 19.4088C5.56418 18.4996 5.92461 17.6275 6.5665 16.9835L9.80051 13.7507L8.18408 12.1342L4.95006 15.3671C3.87984 16.4399 3.27881 17.8934 3.27881 19.4088C3.27881 20.9241 3.87984 22.3776 4.95006 23.4504ZM22.7331 13.7507C23.8028 12.6776 24.4035 11.2242 24.4035 9.70901C24.4035 8.19384 23.8028 6.74045 22.7331 5.66735C21.6603 4.59712 20.2068 3.99609 18.6915 3.99609C17.1761 3.99609 15.7226 4.59712 14.6498 5.66735L11.4169 8.90136L13.0334 10.5178L16.2663 7.28378C16.9105 6.64246 17.7825 6.2824 18.6915 6.2824C19.6005 6.2824 20.4725 6.64246 21.1167 7.28378C21.7586 7.9277 22.119 8.79981 22.119 9.70901C22.119 10.6182 21.7586 11.4903 21.1167 12.1342L17.8827 15.3671L19.4991 16.9835L22.7331 13.7507Z" fill="#888888"/>
<path d="M9.79835 20.2155L8.18066 18.599L17.8833 8.89746L19.4999 10.5151L9.79835 20.2155Z" fill="#888888"/>
</svg>
