<svg width="17" height="16" viewBox="0 0 17 16" fill="none" xmlns="http://www.w3.org/2000/svg">
<path d="M14.6277 11.7343C14.6277 11.4774 14.5378 11.2591 14.358 11.0793L12.3546 9.07581C12.1748 8.89601 11.9565 8.80611 11.6996 8.80611C11.4299 8.80611 11.1987 8.90885 11.0061 9.11434C11.0254 9.1336 11.0864 9.193 11.1891 9.29253C11.2918 9.39206 11.3609 9.46109 11.3962 9.49962C11.4315 9.53815 11.4797 9.59915 11.5407 9.68263C11.6017 9.76611 11.6434 9.84798 11.6659 9.92825C11.6884 10.0085 11.6996 10.0968 11.6996 10.1931C11.6996 10.45 11.6097 10.6683 11.4299 10.8481C11.2501 11.0279 11.0318 11.1178 10.7749 11.1178C10.6786 11.1178 10.5903 11.1066 10.51 11.0841C10.4298 11.0616 10.3479 11.0199 10.2644 10.9589C10.1809 10.8979 10.1199 10.8497 10.0814 10.8144C10.0429 10.7791 9.97385 10.7101 9.87432 10.6073C9.77479 10.5046 9.71539 10.4436 9.69613 10.4243C9.48422 10.6234 9.37827 10.8577 9.37827 11.1274C9.37827 11.3843 9.46817 11.6026 9.64797 11.7824L11.6322 13.7763C11.8055 13.9496 12.0239 14.0363 12.2872 14.0363C12.544 14.0363 12.7623 13.9528 12.9421 13.7859L14.358 12.3796C14.5378 12.1998 14.6277 11.9847 14.6277 11.7343ZM7.8564 4.94365C7.8564 4.6868 7.7665 4.46847 7.5867 4.28867L5.6025 2.29484C5.4227 2.11504 5.20437 2.02514 4.94752 2.02514C4.69708 2.02514 4.47876 2.11183 4.29254 2.2852L2.87662 3.69149C2.69682 3.87128 2.60693 4.0864 2.60693 4.33683C2.60693 4.59369 2.69682 4.81202 2.87662 4.99181L4.88009 6.99528C5.05347 7.16866 5.2718 7.25535 5.53507 7.25535C5.80477 7.25535 6.03594 7.15582 6.22858 6.95676C6.20932 6.93749 6.14832 6.87809 6.04557 6.77856C5.94283 6.67903 5.8738 6.61 5.83848 6.57147C5.80317 6.53295 5.75501 6.47194 5.694 6.38846C5.633 6.30499 5.59126 6.22311 5.56879 6.14285C5.54631 6.06258 5.53507 5.97429 5.53507 5.87796C5.53507 5.62111 5.62497 5.40278 5.80477 5.22298C5.98457 5.04319 6.2029 4.95329 6.45975 4.95329C6.55607 4.95329 6.64437 4.96452 6.72463 4.987C6.8049 5.00947 6.88677 5.05121 6.97025 5.11222C7.05373 5.17322 7.11473 5.22138 7.15326 5.2567C7.19179 5.29201 7.26082 5.36104 7.36035 5.46379C7.45988 5.56653 7.51928 5.62753 7.53854 5.6468C7.75045 5.44773 7.8564 5.21335 7.8564 4.94365ZM16.4771 11.7343C16.4771 12.5048 16.2042 13.1566 15.6584 13.6896L14.2425 15.0959C13.7095 15.6288 13.0577 15.8953 12.2872 15.8953C11.5102 15.8953 10.8552 15.6224 10.3222 15.0766L8.33801 13.0828C7.80503 12.5498 7.53854 11.898 7.53854 11.1274C7.53854 10.3376 7.82108 9.66658 8.38617 9.11434L7.53854 8.26672C6.9863 8.8318 6.31848 9.11434 5.53507 9.11434C4.76451 9.11434 4.10953 8.84464 3.57013 8.30525L1.56666 6.30178C1.02727 5.76238 0.757568 5.1074 0.757568 4.33683C0.757568 3.56627 1.03048 2.9145 1.57629 2.38152L2.99221 0.975243C3.52518 0.442268 4.17695 0.175781 4.94752 0.175781C5.7245 0.175781 6.37948 0.44869 6.91246 0.994507L8.89666 2.98834C9.42964 3.52132 9.69613 4.17309 9.69613 4.94365C9.69613 5.73348 9.41359 6.40452 8.8485 6.95676L9.69613 7.80438C10.2484 7.2393 10.9162 6.95676 11.6996 6.95676C12.4702 6.95676 13.1251 7.22645 13.6645 7.76585L15.668 9.76932C16.2074 10.3087 16.4771 10.9637 16.4771 11.7343Z" fill="black"/>
</svg>
