<svg width="16" height="16" viewBox="0 0 16 16" fill="none" xmlns="http://www.w3.org/2000/svg">
<path d="M4.97867 10.4101H11.7909C12.2072 10.4101 12.5478 10.7507 12.5478 11.167C12.5478 11.5833 12.2072 11.9239 11.7909 11.9239H4.22176C3.80545 11.9239 3.46484 11.5833 3.46484 11.167V3.59782H1.95101C1.5347 3.59782 1.19409 3.2572 1.19409 2.8409C1.19409 2.4246 1.5347 2.08398 1.95101 2.08398H4.22176C4.63806 2.08398 4.97867 2.4246 4.97867 2.8409V4.35473H14.8186L11.7909 9.65315H4.97867V10.4101ZM4.60021 12.6808C5.22846 12.6808 5.73559 13.1879 5.73559 13.8162C5.73559 14.4444 5.22846 14.9516 4.60021 14.9516C3.97197 14.9516 3.46484 14.4444 3.46484 13.8162C3.46484 13.1879 3.97197 12.6808 4.60021 12.6808ZM11.4125 12.6808C12.0407 12.6808 12.5478 13.1879 12.5478 13.8162C12.5478 14.4444 12.0407 14.9516 11.4125 14.9516C10.7842 14.9516 10.2771 14.4444 10.2771 13.8162C10.2771 13.1879 10.7842 12.6808 11.4125 12.6808Z" fill="black"/>
</svg>
