<svg width="9" height="5" viewBox="0 0 9 5" fill="none" xmlns="http://www.w3.org/2000/svg">
<path d="M8.33512 0.80973C8.33541 0.894575 8.31668 0.978407 8.28032 1.05507C8.24395 1.13172 8.19087 1.19926 8.12498 1.25271L4.71742 3.9958C4.6158 4.07933 4.48833 4.125 4.35679 4.125C4.22524 4.125 4.09777 4.07933 3.99615 3.9958L0.588588 1.15617C0.472608 1.05977 0.399672 0.921243 0.385826 0.771068C0.37198 0.620893 0.418358 0.471369 0.514757 0.355388C0.611156 0.239408 0.74968 0.166472 0.899855 0.152626C1.05003 0.138781 1.19955 0.185158 1.31553 0.281558L4.35963 2.82019L7.40372 0.366747C7.48708 0.297299 7.58859 0.253184 7.69624 0.239622C7.80389 0.22606 7.91317 0.243619 8.01116 0.29022C8.10914 0.336822 8.19172 0.410516 8.24913 0.502583C8.30655 0.59465 8.33638 0.701237 8.33512 0.80973Z" fill="black"/>
</svg>
