<svg width="11" height="6" viewBox="0 0 11 6" fill="none" xmlns="http://www.w3.org/2000/svg">
<path d="M10.1598 1.73409C10.1602 1.8377 10.1373 1.94007 10.0929 2.03368C10.0485 2.12729 9.98371 2.20976 9.90327 2.27503L5.74332 5.6247C5.61927 5.72671 5.46365 5.78247 5.30306 5.78247C5.14247 5.78247 4.98686 5.72671 4.8628 5.6247L0.702857 2.15713C0.561269 2.03942 0.472229 1.87026 0.455326 1.68688C0.438423 1.50349 0.495041 1.3209 0.612725 1.17928C0.730409 1.03765 0.899519 0.948586 1.08285 0.931679C1.26618 0.914771 1.44872 0.971405 1.59031 1.08912L5.30653 4.18913L9.02275 1.19315C9.12452 1.10834 9.24844 1.05447 9.37986 1.03791C9.51128 1.02135 9.64469 1.04279 9.76431 1.0997C9.88393 1.15661 9.98474 1.2466 10.0548 1.35902C10.1249 1.47145 10.1613 1.6016 10.1598 1.73409Z" fill="black"/>
</svg>
