<svg width="14" height="14" viewBox="0 0 14 14" fill="none" xmlns="http://www.w3.org/2000/svg">
<ellipse cx="6.83725" cy="7.26082" rx="6.21555" ry="6.7032" fill="white"/>
<path fill-rule="evenodd" clip-rule="evenodd" d="M6.83734 1.55249C3.91434 1.55249 1.54468 4.10807 1.54468 7.26039C1.54468 10.4127 3.91434 12.9683 6.83734 12.9683C9.76033 12.9683 12.13 10.4127 12.13 7.26039C12.13 4.10807 9.76033 1.55249 6.83734 1.55249ZM9.13146 6.29524C9.1737 6.24316 9.20586 6.1825 9.22605 6.11683C9.24623 6.05115 9.25403 5.98178 9.24899 5.9128C9.24395 5.84383 9.22617 5.77663 9.19669 5.71518C9.16722 5.65372 9.12664 5.59924 9.07735 5.55495C9.02807 5.51065 8.97106 5.47743 8.9097 5.45725C8.84833 5.43706 8.78384 5.43032 8.72002 5.43741C8.6562 5.4445 8.59434 5.46528 8.53808 5.49854C8.48182 5.53179 8.43229 5.57685 8.39241 5.63105L6.32347 8.30805L5.25291 7.15298C5.16216 7.05846 5.04062 7.00616 4.91446 7.00734C4.78831 7.00852 4.66763 7.06309 4.57842 7.1593C4.48921 7.25551 4.43861 7.38566 4.43751 7.52171C4.43642 7.65777 4.48491 7.78884 4.57256 7.88671L6.01601 9.44341C6.06329 9.49436 6.11989 9.53414 6.18221 9.56019C6.24453 9.58625 6.3112 9.59802 6.37797 9.59475C6.44474 9.59147 6.51014 9.57324 6.57001 9.54119C6.62989 9.50915 6.68291 9.46401 6.72571 9.40864L9.13146 6.29524Z" fill="#007AFF"/>
</svg>
