<svg width="24" height="24" viewBox="0 0 24 24" fill="none" xmlns="http://www.w3.org/2000/svg">
<circle cx="12.1465" cy="12.1494" r="11.7495" fill="white"/>
<path fill-rule="evenodd" clip-rule="evenodd" d="M12.1468 2.11719C6.60612 2.11719 2.11426 6.60905 2.11426 12.1498C2.11426 17.6905 6.60612 22.1824 12.1468 22.1824C17.6876 22.1824 22.1794 17.6905 22.1794 12.1498C22.1794 6.60905 17.6876 2.11719 12.1468 2.11719ZM16.4955 10.4534C16.5756 10.3618 16.6365 10.2552 16.6748 10.1398C16.7131 10.0243 16.7279 9.90239 16.7183 9.78115C16.7087 9.65991 16.675 9.54181 16.6192 9.43379C16.5633 9.32577 16.4864 9.23002 16.3929 9.15216C16.2995 9.07431 16.1915 9.01592 16.0751 8.98044C15.9588 8.94496 15.8366 8.93311 15.7156 8.94557C15.5946 8.95803 15.4774 8.99456 15.3707 9.05302C15.2641 9.11147 15.1702 9.19065 15.0946 9.28592L11.1728 13.9912L9.14345 11.961C8.97143 11.7948 8.74105 11.7029 8.50191 11.705C8.26277 11.7071 8.03402 11.803 7.86492 11.9721C7.69581 12.1412 7.5999 12.3699 7.59782 12.6091C7.59574 12.8482 7.68767 13.0786 7.85381 13.2506L10.59 15.9868C10.6796 16.0763 10.7869 16.1462 10.905 16.192C11.0231 16.2378 11.1495 16.2585 11.2761 16.2528C11.4026 16.247 11.5266 16.215 11.6401 16.1587C11.7536 16.1023 11.8541 16.023 11.9352 15.9257L16.4955 10.4534Z" fill="#007AFF"/>
</svg>
