<svg width="14" height="15" viewBox="0 0 14 15" fill="none" xmlns="http://www.w3.org/2000/svg">
<path fill-rule="evenodd" clip-rule="evenodd" d="M7.02573 0.656982C3.22355 0.656982 0.141113 3.73941 0.141113 7.5416C0.141113 11.3438 3.22355 14.4262 7.02573 14.4262C10.8279 14.4262 13.9104 11.3438 13.9104 7.5416C13.9104 3.73941 10.8279 0.656982 7.02573 0.656982ZM10.0099 6.37747C10.0649 6.31466 10.1067 6.2415 10.1329 6.16228C10.1592 6.08306 10.1693 5.99939 10.1628 5.9162C10.1562 5.833 10.1331 5.75195 10.0948 5.67783C10.0564 5.6037 10.0036 5.53799 9.93952 5.48457C9.87541 5.43114 9.80126 5.39107 9.72143 5.36673C9.64161 5.34238 9.55772 5.33424 9.47471 5.3428C9.39169 5.35135 9.31122 5.37642 9.23804 5.41653C9.16485 5.45664 9.10043 5.51098 9.04856 5.57636L6.3573 8.80524L4.96473 7.41205C4.84669 7.29804 4.68859 7.23495 4.52449 7.23638C4.36039 7.2378 4.20341 7.30363 4.08737 7.41967C3.97132 7.53571 3.9055 7.69269 3.90407 7.85679C3.90265 8.02089 3.96573 8.17899 4.07974 8.29703L5.95736 10.1747C6.01886 10.2361 6.09249 10.2841 6.17355 10.3155C6.25462 10.3469 6.34134 10.3611 6.42819 10.3572C6.51504 10.3532 6.60012 10.3312 6.678 10.2926C6.75588 10.254 6.82486 10.1995 6.88053 10.1327L10.0099 6.37747Z" fill="#007AFF"/>
</svg>
