<svg width="14" height="13" viewBox="0 0 14 13" fill="none" xmlns="http://www.w3.org/2000/svg">
<path d="M11.8704 2.40342L11.8698 2.40286C11.5592 2.09844 11.1931 1.85652 10.7912 1.69025L10.7903 1.68987C10.3733 1.51665 9.92608 1.42799 9.47455 1.42903L9.4729 1.42903C8.83736 1.42903 8.21862 1.60299 7.68154 1.93063L7.68152 1.93064C7.553 2.00904 7.43144 2.09481 7.31658 2.18798L6.86623 2.55326L6.41588 2.18798C6.30101 2.09481 6.17945 2.00904 6.05094 1.93064L6.05092 1.93063C5.51384 1.60299 4.8951 1.42903 4.25956 1.42903C3.80063 1.42903 3.35923 1.51662 2.94213 1.68987L2.94136 1.69019C2.53786 1.85725 2.17493 2.09703 1.86245 2.40307L1.86148 2.40403L1.86148 2.40403C1.55227 2.70572 1.30527 3.06515 1.13447 3.46194L11.8704 2.40342ZM11.8704 2.40342C12.1796 2.70586 12.4269 3.0657 12.5984 3.4628C12.7759 3.87559 12.8659 4.31165 12.8646 4.76122V4.76325C12.8646 5.18297 12.7789 5.63586 12.5963 6.11354L12.5956 6.11516M11.8704 2.40342L12.5956 6.11516M3.78235 9.61452L3.78243 9.61459C4.47889 10.2578 5.17475 10.8039 5.70519 11.1944C5.96987 11.3893 6.19196 11.5443 6.3505 11.6523C6.42975 11.7062 6.49292 11.7483 6.53736 11.7775C6.58464 11.8086 6.60584 11.8219 6.60363 11.8205L6.61496 11.8275L6.61489 11.8276L6.86545 11.9883L7.11602 11.8276L7.11615 11.8275C7.16262 11.7977 8.54937 10.9052 9.94855 9.61452H3.78235ZM3.78235 9.61452C2.94144 8.83818 2.28094 8.08743 1.81006 7.38549C1.51309 6.94219 1.28803 6.51396 1.13451 6.11318C0.95192 5.63563 0.866274 5.18286 0.866274 4.76325C0.866274 4.31201 0.956712 3.87502 1.13444 3.462L3.78235 9.61452ZM12.5956 6.11516C12.4444 6.51347 12.2187 6.94094 11.9208 7.38549M12.5956 6.11516L11.9208 7.38549M11.9208 7.38549C11.45 8.08738 10.7896 8.83806 9.94876 9.61433L11.9208 7.38549Z" stroke="#888888" stroke-width="1.42981"/>
</svg>
