<svg width="341" height="173" viewBox="0 0 341 173" fill="none" xmlns="http://www.w3.org/2000/svg">
<g opacity="0.7">
<rect x="207.423" y="173" width="2.83607" height="2.84073" transform="rotate(-90 207.423 173)" fill="#C5C5C5"/>
<rect x="207.423" y="154.094" width="2.83607" height="2.84073" transform="rotate(-90 207.423 154.094)" fill="#C5C5C5"/>
<rect x="207.423" y="135.186" width="2.83607" height="2.84073" transform="rotate(-90 207.423 135.186)" fill="#C5C5C5"/>
<rect x="207.423" y="116.278" width="2.83607" height="2.84073" transform="rotate(-90 207.423 116.278)" fill="#C5C5C5"/>
<rect x="207.423" y="97.3717" width="2.83607" height="2.84073" transform="rotate(-90 207.423 97.3717)" fill="#C5C5C5"/>
<rect x="207.423" y="78.464" width="2.83607" height="2.84073" transform="rotate(-90 207.423 78.464)" fill="#C5C5C5"/>
<rect x="207.423" y="59.5568" width="2.83607" height="2.84073" transform="rotate(-90 207.423 59.5568)" fill="#C5C5C5"/>
<rect x="207.423" y="40.6494" width="2.83607" height="2.84073" transform="rotate(-90 207.423 40.6494)" fill="#C5C5C5"/>
<rect x="207.423" y="21.7423" width="2.83607" height="2.84073" transform="rotate(-90 207.423 21.7423)" fill="#C5C5C5"/>
<rect x="207.423" y="2.83618" width="2.83607" height="2.84073" transform="rotate(-90 207.423 2.83618)" fill="#C5C5C5"/>
<rect x="226.36" y="173" width="2.83607" height="2.84073" transform="rotate(-90 226.36 173)" fill="#C5C5C5"/>
<rect x="226.36" y="154.094" width="2.83607" height="2.84073" transform="rotate(-90 226.36 154.094)" fill="#C5C5C5"/>
<rect x="226.36" y="135.186" width="2.83607" height="2.84073" transform="rotate(-90 226.36 135.186)" fill="#C5C5C5"/>
<rect x="226.36" y="116.278" width="2.83607" height="2.84073" transform="rotate(-90 226.36 116.278)" fill="#C5C5C5"/>
<rect x="226.36" y="97.3717" width="2.83607" height="2.84073" transform="rotate(-90 226.36 97.3717)" fill="#C5C5C5"/>
<rect x="226.36" y="78.464" width="2.83607" height="2.84073" transform="rotate(-90 226.36 78.464)" fill="#C5C5C5"/>
<rect x="226.36" y="59.5569" width="2.83607" height="2.84073" transform="rotate(-90 226.36 59.5569)" fill="#C5C5C5"/>
<rect x="226.36" y="40.6494" width="2.83607" height="2.84073" transform="rotate(-90 226.36 40.6494)" fill="#C5C5C5"/>
<rect x="226.36" y="21.7423" width="2.83607" height="2.84073" transform="rotate(-90 226.36 21.7423)" fill="#C5C5C5"/>
<rect x="226.36" y="2.83618" width="2.83607" height="2.84073" transform="rotate(-90 226.36 2.83618)" fill="#C5C5C5"/>
<rect x="245.3" y="173" width="2.83607" height="2.84073" transform="rotate(-90 245.3 173)" fill="#C5C5C5"/>
<rect x="245.3" y="154.094" width="2.83607" height="2.84073" transform="rotate(-90 245.3 154.094)" fill="#C5C5C5"/>
<rect x="245.3" y="135.186" width="2.83607" height="2.84073" transform="rotate(-90 245.3 135.186)" fill="#C5C5C5"/>
<rect x="245.3" y="116.278" width="2.83607" height="2.84073" transform="rotate(-90 245.3 116.278)" fill="#C5C5C5"/>
<rect x="245.3" y="97.3717" width="2.83607" height="2.84073" transform="rotate(-90 245.3 97.3717)" fill="#C5C5C5"/>
<rect x="245.3" y="78.464" width="2.83607" height="2.84073" transform="rotate(-90 245.3 78.464)" fill="#C5C5C5"/>
<rect x="245.3" y="59.5569" width="2.83607" height="2.84073" transform="rotate(-90 245.3 59.5569)" fill="#C5C5C5"/>
<rect x="245.3" y="40.6494" width="2.83607" height="2.84073" transform="rotate(-90 245.3 40.6494)" fill="#C5C5C5"/>
<rect x="245.3" y="21.7423" width="2.83607" height="2.84073" transform="rotate(-90 245.3 21.7423)" fill="#C5C5C5"/>
<rect x="245.3" y="2.83618" width="2.83607" height="2.84073" transform="rotate(-90 245.3 2.83618)" fill="#C5C5C5"/>
<rect x="264.238" y="173" width="2.83607" height="2.84073" transform="rotate(-90 264.238 173)" fill="#C5C5C5"/>
<rect x="264.238" y="154.094" width="2.83607" height="2.84073" transform="rotate(-90 264.238 154.094)" fill="#C5C5C5"/>
<rect x="264.238" y="135.186" width="2.83607" height="2.84073" transform="rotate(-90 264.238 135.186)" fill="#C5C5C5"/>
<rect x="264.238" y="116.278" width="2.83607" height="2.84073" transform="rotate(-90 264.238 116.278)" fill="#C5C5C5"/>
<rect x="264.238" y="97.3717" width="2.83607" height="2.84073" transform="rotate(-90 264.238 97.3717)" fill="#C5C5C5"/>
<rect x="264.238" y="78.464" width="2.83607" height="2.84073" transform="rotate(-90 264.238 78.464)" fill="#C5C5C5"/>
<rect x="264.238" y="59.5569" width="2.83607" height="2.84073" transform="rotate(-90 264.238 59.5569)" fill="#C5C5C5"/>
<rect x="264.238" y="40.6494" width="2.83607" height="2.84073" transform="rotate(-90 264.238 40.6494)" fill="#C5C5C5"/>
<rect x="264.238" y="21.7423" width="2.83607" height="2.84073" transform="rotate(-90 264.238 21.7423)" fill="#C5C5C5"/>
<rect x="264.238" y="2.83618" width="2.83607" height="2.84073" transform="rotate(-90 264.238 2.83618)" fill="#C5C5C5"/>
<rect x="283.176" y="173" width="2.83607" height="2.84073" transform="rotate(-90 283.176 173)" fill="#C5C5C5"/>
<rect x="283.176" y="154.094" width="2.83607" height="2.84073" transform="rotate(-90 283.176 154.094)" fill="#C5C5C5"/>
<rect x="283.176" y="135.186" width="2.83607" height="2.84073" transform="rotate(-90 283.176 135.186)" fill="#C5C5C5"/>
<rect x="283.176" y="116.278" width="2.83607" height="2.84073" transform="rotate(-90 283.176 116.278)" fill="#C5C5C5"/>
<rect x="283.176" y="97.3717" width="2.83607" height="2.84073" transform="rotate(-90 283.176 97.3717)" fill="#C5C5C5"/>
<rect x="283.176" y="78.464" width="2.83607" height="2.84073" transform="rotate(-90 283.176 78.464)" fill="#C5C5C5"/>
<rect x="283.176" y="59.5569" width="2.83607" height="2.84073" transform="rotate(-90 283.176 59.5569)" fill="#C5C5C5"/>
<rect x="283.176" y="40.6494" width="2.83607" height="2.84073" transform="rotate(-90 283.176 40.6494)" fill="#C5C5C5"/>
<rect x="283.176" y="21.7423" width="2.83607" height="2.84073" transform="rotate(-90 283.176 21.7423)" fill="#C5C5C5"/>
<rect x="283.176" y="2.83618" width="2.83607" height="2.84073" transform="rotate(-90 283.176 2.83618)" fill="#C5C5C5"/>
<rect x="302.114" y="173" width="2.83607" height="2.84073" transform="rotate(-90 302.114 173)" fill="#C5C5C5"/>
<rect x="302.114" y="154.094" width="2.83607" height="2.84073" transform="rotate(-90 302.114 154.094)" fill="#C5C5C5"/>
<rect x="302.114" y="135.186" width="2.83607" height="2.84073" transform="rotate(-90 302.114 135.186)" fill="#C5C5C5"/>
<rect x="302.114" y="116.278" width="2.83607" height="2.84073" transform="rotate(-90 302.114 116.278)" fill="#C5C5C5"/>
<rect x="302.114" y="97.3717" width="2.83607" height="2.84073" transform="rotate(-90 302.114 97.3717)" fill="#C5C5C5"/>
<rect x="302.114" y="78.464" width="2.83607" height="2.84073" transform="rotate(-90 302.114 78.464)" fill="#C5C5C5"/>
<rect x="302.114" y="59.5569" width="2.83607" height="2.84073" transform="rotate(-90 302.114 59.5569)" fill="#C5C5C5"/>
<rect x="302.114" y="40.6494" width="2.83607" height="2.84073" transform="rotate(-90 302.114 40.6494)" fill="#C5C5C5"/>
<rect x="302.114" y="21.7423" width="2.83607" height="2.84073" transform="rotate(-90 302.114 21.7423)" fill="#C5C5C5"/>
<rect x="302.114" y="2.83618" width="2.83607" height="2.84073" transform="rotate(-90 302.114 2.83618)" fill="#C5C5C5"/>
<rect x="321.052" y="173" width="2.83607" height="2.84073" transform="rotate(-90 321.052 173)" fill="#C5C5C5"/>
<rect x="321.052" y="154.094" width="2.83607" height="2.84073" transform="rotate(-90 321.052 154.094)" fill="#C5C5C5"/>
<rect x="321.052" y="135.186" width="2.83607" height="2.84073" transform="rotate(-90 321.052 135.186)" fill="#C5C5C5"/>
<rect x="321.052" y="116.278" width="2.83607" height="2.84073" transform="rotate(-90 321.052 116.278)" fill="#C5C5C5"/>
<rect x="321.052" y="97.3717" width="2.83607" height="2.84073" transform="rotate(-90 321.052 97.3717)" fill="#C5C5C5"/>
<rect x="321.052" y="78.464" width="2.83607" height="2.84073" transform="rotate(-90 321.052 78.464)" fill="#C5C5C5"/>
<rect x="321.052" y="59.5569" width="2.83607" height="2.84073" transform="rotate(-90 321.052 59.5569)" fill="#C5C5C5"/>
<rect x="321.052" y="40.6494" width="2.83607" height="2.84073" transform="rotate(-90 321.052 40.6494)" fill="#C5C5C5"/>
<rect x="321.052" y="21.7423" width="2.83607" height="2.84073" transform="rotate(-90 321.052 21.7423)" fill="#C5C5C5"/>
<rect x="321.052" y="2.83618" width="2.83607" height="2.84073" transform="rotate(-90 321.052 2.83618)" fill="#C5C5C5"/>
<rect x="339.989" y="173" width="2.83607" height="2.84073" transform="rotate(-90 339.989 173)" fill="#C5C5C5"/>
<rect x="339.991" y="154.094" width="2.83607" height="2.84073" transform="rotate(-90 339.991 154.094)" fill="#C5C5C5"/>
<rect x="339.991" y="135.186" width="2.83607" height="2.84073" transform="rotate(-90 339.991 135.186)" fill="#C5C5C5"/>
<rect x="339.991" y="116.278" width="2.83607" height="2.84073" transform="rotate(-90 339.991 116.278)" fill="#C5C5C5"/>
<rect x="339.991" y="97.3717" width="2.83607" height="2.84073" transform="rotate(-90 339.991 97.3717)" fill="#C5C5C5"/>
<rect x="339.991" y="78.464" width="2.83607" height="2.84073" transform="rotate(-90 339.991 78.464)" fill="#C5C5C5"/>
<rect x="339.991" y="59.5569" width="2.83607" height="2.84073" transform="rotate(-90 339.991 59.5569)" fill="#C5C5C5"/>
<rect x="339.991" y="40.6494" width="2.83607" height="2.84073" transform="rotate(-90 339.991 40.6494)" fill="#C5C5C5"/>
<rect x="339.991" y="21.7423" width="2.83607" height="2.84073" transform="rotate(-90 339.991 21.7423)" fill="#C5C5C5"/>
<rect x="339.991" y="2.83618" width="2.83607" height="2.84073" transform="rotate(-90 339.991 2.83618)" fill="#C5C5C5"/>
</g>
<g opacity="0.7">
<rect y="173" width="2.83607" height="2.84073" transform="rotate(-90 0 173)" fill="#C5C5C5"/>
<rect y="154.094" width="2.83607" height="2.84073" transform="rotate(-90 0 154.094)" fill="#C5C5C5"/>
<rect y="135.186" width="2.83607" height="2.84073" transform="rotate(-90 0 135.186)" fill="#C5C5C5"/>
<rect y="116.278" width="2.83607" height="2.84073" transform="rotate(-90 0 116.278)" fill="#C5C5C5"/>
<rect y="97.3717" width="2.83607" height="2.84073" transform="rotate(-90 0 97.3717)" fill="#C5C5C5"/>
<rect y="78.464" width="2.83607" height="2.84073" transform="rotate(-90 0 78.464)" fill="#C5C5C5"/>
<rect y="59.5569" width="2.83607" height="2.84073" transform="rotate(-90 0 59.5569)" fill="#C5C5C5"/>
<rect y="40.6494" width="2.83607" height="2.84073" transform="rotate(-90 0 40.6494)" fill="#C5C5C5"/>
<rect y="21.7423" width="2.83607" height="2.84073" transform="rotate(-90 0 21.7423)" fill="#C5C5C5"/>
<rect y="2.83618" width="2.83607" height="2.84073" transform="rotate(-90 0 2.83618)" fill="#C5C5C5"/>
<rect x="18.9375" y="173" width="2.83607" height="2.84073" transform="rotate(-90 18.9375 173)" fill="#C5C5C5"/>
<rect x="18.9375" y="154.094" width="2.83607" height="2.84073" transform="rotate(-90 18.9375 154.094)" fill="#C5C5C5"/>
<rect x="18.9375" y="135.186" width="2.83607" height="2.84073" transform="rotate(-90 18.9375 135.186)" fill="#C5C5C5"/>
<rect x="18.9375" y="116.278" width="2.83607" height="2.84073" transform="rotate(-90 18.9375 116.278)" fill="#C5C5C5"/>
<rect x="18.9375" y="97.3717" width="2.83607" height="2.84073" transform="rotate(-90 18.9375 97.3717)" fill="#C5C5C5"/>
<rect x="18.9375" y="78.464" width="2.83607" height="2.84073" transform="rotate(-90 18.9375 78.464)" fill="#C5C5C5"/>
<rect x="18.9375" y="59.5569" width="2.83607" height="2.84073" transform="rotate(-90 18.9375 59.5569)" fill="#C5C5C5"/>
<rect x="18.9375" y="40.6494" width="2.83607" height="2.84073" transform="rotate(-90 18.9375 40.6494)" fill="#C5C5C5"/>
<rect x="18.9375" y="21.7423" width="2.83607" height="2.84073" transform="rotate(-90 18.9375 21.7423)" fill="#C5C5C5"/>
<rect x="18.9375" y="2.83618" width="2.83607" height="2.84073" transform="rotate(-90 18.9375 2.83618)" fill="#C5C5C5"/>
<rect x="37.877" y="173" width="2.83607" height="2.84073" transform="rotate(-90 37.877 173)" fill="#C5C5C5"/>
<rect x="37.877" y="154.094" width="2.83607" height="2.84073" transform="rotate(-90 37.877 154.094)" fill="#C5C5C5"/>
<rect x="37.877" y="135.186" width="2.83607" height="2.84073" transform="rotate(-90 37.877 135.186)" fill="#C5C5C5"/>
<rect x="37.877" y="116.278" width="2.83607" height="2.84073" transform="rotate(-90 37.877 116.278)" fill="#C5C5C5"/>
<rect x="37.877" y="97.3717" width="2.83607" height="2.84073" transform="rotate(-90 37.877 97.3717)" fill="#C5C5C5"/>
<rect x="37.877" y="78.464" width="2.83607" height="2.84073" transform="rotate(-90 37.877 78.464)" fill="#C5C5C5"/>
<rect x="37.877" y="59.5569" width="2.83607" height="2.84073" transform="rotate(-90 37.877 59.5569)" fill="#C5C5C5"/>
<rect x="37.877" y="40.6494" width="2.83607" height="2.84073" transform="rotate(-90 37.877 40.6494)" fill="#C5C5C5"/>
<rect x="37.877" y="21.7423" width="2.83607" height="2.84073" transform="rotate(-90 37.877 21.7423)" fill="#C5C5C5"/>
<rect x="37.877" y="2.83618" width="2.83607" height="2.84073" transform="rotate(-90 37.877 2.83618)" fill="#C5C5C5"/>
<rect x="56.8154" y="173" width="2.83607" height="2.84073" transform="rotate(-90 56.8154 173)" fill="#C5C5C5"/>
<rect x="56.8154" y="154.094" width="2.83607" height="2.84073" transform="rotate(-90 56.8154 154.094)" fill="#C5C5C5"/>
<rect x="56.8154" y="135.186" width="2.83607" height="2.84073" transform="rotate(-90 56.8154 135.186)" fill="#C5C5C5"/>
<rect x="56.8154" y="116.278" width="2.83607" height="2.84073" transform="rotate(-90 56.8154 116.278)" fill="#C5C5C5"/>
<rect x="56.8154" y="97.3717" width="2.83607" height="2.84073" transform="rotate(-90 56.8154 97.3717)" fill="#C5C5C5"/>
<rect x="56.8154" y="78.464" width="2.83607" height="2.84073" transform="rotate(-90 56.8154 78.464)" fill="#C5C5C5"/>
<rect x="56.8154" y="59.5569" width="2.83607" height="2.84073" transform="rotate(-90 56.8154 59.5569)" fill="#C5C5C5"/>
<rect x="56.8154" y="40.6494" width="2.83607" height="2.84073" transform="rotate(-90 56.8154 40.6494)" fill="#C5C5C5"/>
<rect x="56.8154" y="21.7423" width="2.83607" height="2.84073" transform="rotate(-90 56.8154 21.7423)" fill="#C5C5C5"/>
<rect x="56.8154" y="2.83618" width="2.83607" height="2.84073" transform="rotate(-90 56.8154 2.83618)" fill="#C5C5C5"/>
<rect x="75.7529" y="173" width="2.83607" height="2.84073" transform="rotate(-90 75.7529 173)" fill="#C5C5C5"/>
<rect x="75.7529" y="154.094" width="2.83607" height="2.84073" transform="rotate(-90 75.7529 154.094)" fill="#C5C5C5"/>
<rect x="75.7529" y="135.186" width="2.83607" height="2.84073" transform="rotate(-90 75.7529 135.186)" fill="#C5C5C5"/>
<rect x="75.7529" y="116.278" width="2.83607" height="2.84073" transform="rotate(-90 75.7529 116.278)" fill="#C5C5C5"/>
<rect x="75.7529" y="97.3717" width="2.83607" height="2.84073" transform="rotate(-90 75.7529 97.3717)" fill="#C5C5C5"/>
<rect x="75.7529" y="78.464" width="2.83607" height="2.84073" transform="rotate(-90 75.7529 78.464)" fill="#C5C5C5"/>
<rect x="75.7529" y="59.5569" width="2.83607" height="2.84073" transform="rotate(-90 75.7529 59.5569)" fill="#C5C5C5"/>
<rect x="75.7529" y="40.6494" width="2.83607" height="2.84073" transform="rotate(-90 75.7529 40.6494)" fill="#C5C5C5"/>
<rect x="75.7529" y="21.7423" width="2.83607" height="2.84073" transform="rotate(-90 75.7529 21.7423)" fill="#C5C5C5"/>
<rect x="75.7529" y="2.83618" width="2.83607" height="2.84073" transform="rotate(-90 75.7529 2.83618)" fill="#C5C5C5"/>
<rect x="94.6914" y="173" width="2.83607" height="2.84073" transform="rotate(-90 94.6914 173)" fill="#C5C5C5"/>
<rect x="94.6914" y="154.094" width="2.83607" height="2.84073" transform="rotate(-90 94.6914 154.094)" fill="#C5C5C5"/>
<rect x="94.6914" y="135.186" width="2.83607" height="2.84073" transform="rotate(-90 94.6914 135.186)" fill="#C5C5C5"/>
<rect x="94.6914" y="116.278" width="2.83607" height="2.84073" transform="rotate(-90 94.6914 116.278)" fill="#C5C5C5"/>
<rect x="94.6914" y="97.3717" width="2.83607" height="2.84073" transform="rotate(-90 94.6914 97.3717)" fill="#C5C5C5"/>
<rect x="94.6914" y="78.464" width="2.83607" height="2.84073" transform="rotate(-90 94.6914 78.464)" fill="#C5C5C5"/>
<rect x="94.6914" y="59.5569" width="2.83607" height="2.84073" transform="rotate(-90 94.6914 59.5569)" fill="#C5C5C5"/>
<rect x="94.6914" y="40.6494" width="2.83607" height="2.84073" transform="rotate(-90 94.6914 40.6494)" fill="#C5C5C5"/>
<rect x="94.6914" y="21.7423" width="2.83607" height="2.84073" transform="rotate(-90 94.6914 21.7423)" fill="#C5C5C5"/>
<rect x="94.6914" y="2.83618" width="2.83607" height="2.84073" transform="rotate(-90 94.6914 2.83618)" fill="#C5C5C5"/>
<rect x="113.629" y="173" width="2.83607" height="2.84073" transform="rotate(-90 113.629 173)" fill="#C5C5C5"/>
<rect x="113.629" y="154.094" width="2.83607" height="2.84073" transform="rotate(-90 113.629 154.094)" fill="#C5C5C5"/>
<rect x="113.629" y="135.186" width="2.83607" height="2.84073" transform="rotate(-90 113.629 135.186)" fill="#C5C5C5"/>
<rect x="113.629" y="116.278" width="2.83607" height="2.84073" transform="rotate(-90 113.629 116.278)" fill="#C5C5C5"/>
<rect x="113.629" y="97.3717" width="2.83607" height="2.84073" transform="rotate(-90 113.629 97.3717)" fill="#C5C5C5"/>
<rect x="113.629" y="78.464" width="2.83607" height="2.84073" transform="rotate(-90 113.629 78.464)" fill="#C5C5C5"/>
<rect x="113.629" y="59.5569" width="2.83607" height="2.84073" transform="rotate(-90 113.629 59.5569)" fill="#C5C5C5"/>
<rect x="113.629" y="40.6494" width="2.83607" height="2.84073" transform="rotate(-90 113.629 40.6494)" fill="#C5C5C5"/>
<rect x="113.629" y="21.7423" width="2.83607" height="2.84073" transform="rotate(-90 113.629 21.7423)" fill="#C5C5C5"/>
<rect x="113.629" y="2.83618" width="2.83607" height="2.84073" transform="rotate(-90 113.629 2.83618)" fill="#C5C5C5"/>
<rect x="132.566" y="173" width="2.83607" height="2.84073" transform="rotate(-90 132.566 173)" fill="#C5C5C5"/>
<rect x="132.568" y="154.094" width="2.83607" height="2.84073" transform="rotate(-90 132.568 154.094)" fill="#C5C5C5"/>
<rect x="132.568" y="135.186" width="2.83607" height="2.84073" transform="rotate(-90 132.568 135.186)" fill="#C5C5C5"/>
<rect x="132.568" y="116.278" width="2.83607" height="2.84073" transform="rotate(-90 132.568 116.278)" fill="#C5C5C5"/>
<rect x="132.568" y="97.3717" width="2.83607" height="2.84073" transform="rotate(-90 132.568 97.3717)" fill="#C5C5C5"/>
<rect x="132.568" y="78.464" width="2.83607" height="2.84073" transform="rotate(-90 132.568 78.464)" fill="#C5C5C5"/>
<rect x="132.568" y="59.5569" width="2.83607" height="2.84073" transform="rotate(-90 132.568 59.5569)" fill="#C5C5C5"/>
<rect x="132.568" y="40.6494" width="2.83607" height="2.84073" transform="rotate(-90 132.568 40.6494)" fill="#C5C5C5"/>
<rect x="132.568" y="21.7423" width="2.83607" height="2.84073" transform="rotate(-90 132.568 21.7423)" fill="#C5C5C5"/>
<rect x="132.568" y="2.83618" width="2.83607" height="2.84073" transform="rotate(-90 132.568 2.83618)" fill="#C5C5C5"/>
<rect x="151.506" y="173" width="2.83607" height="2.84073" transform="rotate(-90 151.506 173)" fill="#C5C5C5"/>
<rect x="151.506" y="154.094" width="2.83607" height="2.84073" transform="rotate(-90 151.506 154.094)" fill="#C5C5C5"/>
<rect x="151.506" y="135.186" width="2.83607" height="2.84073" transform="rotate(-90 151.506 135.186)" fill="#C5C5C5"/>
<rect x="151.506" y="116.278" width="2.83607" height="2.84073" transform="rotate(-90 151.506 116.278)" fill="#C5C5C5"/>
<rect x="151.506" y="97.3717" width="2.83607" height="2.84073" transform="rotate(-90 151.506 97.3717)" fill="#C5C5C5"/>
<rect x="151.506" y="78.464" width="2.83607" height="2.84073" transform="rotate(-90 151.506 78.464)" fill="#C5C5C5"/>
<rect x="151.506" y="59.5569" width="2.83607" height="2.84073" transform="rotate(-90 151.506 59.5569)" fill="#C5C5C5"/>
<rect x="151.506" y="40.6494" width="2.83607" height="2.84073" transform="rotate(-90 151.506 40.6494)" fill="#C5C5C5"/>
<rect x="151.506" y="21.7423" width="2.83607" height="2.84073" transform="rotate(-90 151.506 21.7423)" fill="#C5C5C5"/>
<rect x="151.506" y="2.83618" width="2.83607" height="2.84073" transform="rotate(-90 151.506 2.83618)" fill="#C5C5C5"/>
<rect x="170.443" y="173" width="2.83607" height="2.84073" transform="rotate(-90 170.443 173)" fill="#C5C5C5"/>
<rect x="170.443" y="154.094" width="2.83607" height="2.84073" transform="rotate(-90 170.443 154.094)" fill="#C5C5C5"/>
<rect x="170.443" y="135.186" width="2.83607" height="2.84073" transform="rotate(-90 170.443 135.186)" fill="#C5C5C5"/>
<rect x="170.443" y="116.278" width="2.83607" height="2.84073" transform="rotate(-90 170.443 116.278)" fill="#C5C5C5"/>
<rect x="170.443" y="97.3717" width="2.83607" height="2.84073" transform="rotate(-90 170.443 97.3717)" fill="#C5C5C5"/>
<rect x="170.443" y="78.464" width="2.83607" height="2.84073" transform="rotate(-90 170.443 78.464)" fill="#C5C5C5"/>
<rect x="170.443" y="59.5569" width="2.83607" height="2.84073" transform="rotate(-90 170.443 59.5569)" fill="#C5C5C5"/>
<rect x="170.443" y="40.6494" width="2.83607" height="2.84073" transform="rotate(-90 170.443 40.6494)" fill="#C5C5C5"/>
<rect x="170.443" y="21.7423" width="2.83607" height="2.84073" transform="rotate(-90 170.443 21.7423)" fill="#C5C5C5"/>
<rect x="170.443" y="2.83618" width="2.83607" height="2.84073" transform="rotate(-90 170.443 2.83618)" fill="#C5C5C5"/>
<rect x="189.382" y="173" width="2.83607" height="2.84073" transform="rotate(-90 189.382 173)" fill="#C5C5C5"/>
<rect x="189.383" y="154.094" width="2.83607" height="2.84073" transform="rotate(-90 189.383 154.094)" fill="#C5C5C5"/>
<rect x="189.383" y="135.186" width="2.83607" height="2.84073" transform="rotate(-90 189.383 135.186)" fill="#C5C5C5"/>
<rect x="189.383" y="116.278" width="2.83607" height="2.84073" transform="rotate(-90 189.383 116.278)" fill="#C5C5C5"/>
<rect x="189.383" y="97.3717" width="2.83607" height="2.84073" transform="rotate(-90 189.383 97.3717)" fill="#C5C5C5"/>
<rect x="189.383" y="78.464" width="2.83607" height="2.84073" transform="rotate(-90 189.383 78.464)" fill="#C5C5C5"/>
<rect x="189.383" y="59.5569" width="2.83607" height="2.84073" transform="rotate(-90 189.383 59.5569)" fill="#C5C5C5"/>
<rect x="189.383" y="40.6494" width="2.83607" height="2.84073" transform="rotate(-90 189.383 40.6494)" fill="#C5C5C5"/>
<rect x="189.383" y="21.7423" width="2.83607" height="2.84073" transform="rotate(-90 189.383 21.7423)" fill="#C5C5C5"/>
<rect x="189.383" y="2.83618" width="2.83607" height="2.84073" transform="rotate(-90 189.383 2.83618)" fill="#C5C5C5"/>
</g>
</svg>
