<svg width="29" height="29" viewBox="0 0 29 29" fill="none" xmlns="http://www.w3.org/2000/svg">
<circle cx="14.5" cy="14.5" r="14.5" fill="white"/>
<path fill-rule="evenodd" clip-rule="evenodd" d="M14.5005 2.11865C7.66271 2.11865 2.11932 7.66203 2.11932 14.4998C2.11932 21.3376 7.66271 26.881 14.5005 26.881C21.3383 26.881 26.8816 21.3376 26.8816 14.4998C26.8816 7.66203 21.3383 2.11865 14.5005 2.11865ZM19.8672 12.4063C19.966 12.2933 20.0412 12.1617 20.0884 12.0193C20.1356 11.8768 20.1539 11.7263 20.1421 11.5767C20.1303 11.4271 20.0887 11.2813 20.0198 11.148C19.9508 11.0147 19.8559 10.8966 19.7406 10.8005C19.6253 10.7044 19.4919 10.6323 19.3484 10.5886C19.2048 10.5448 19.054 10.5301 18.9047 10.5455C18.7554 10.5609 18.6107 10.606 18.479 10.6781C18.3474 10.7503 18.2316 10.848 18.1383 10.9656L13.2984 16.7723L10.794 14.2668C10.5817 14.0618 10.2974 13.9483 10.0023 13.9509C9.70718 13.9535 9.42487 14.0718 9.21618 14.2805C9.0075 14.4892 8.88912 14.7715 8.88656 15.0666C8.88399 15.3618 8.99744 15.6461 9.20247 15.8584L12.5792 19.235C12.6897 19.3456 12.8222 19.4318 12.9679 19.4884C13.1137 19.5449 13.2697 19.5704 13.4259 19.5633C13.5821 19.5562 13.7351 19.5167 13.8751 19.4472C14.0152 19.3776 14.1392 19.2797 14.2394 19.1596L19.8672 12.4063Z" fill="#0066D5"/>
</svg>
